<?xml version="1.0" encoding="UTF-8"?>
<svg version="1.1" xmlns="http://www.w3.org/2000/svg" width="1525" height="738">
<path d="M0 0 C503.25 0 1006.5 0 1525 0 C1525 243.54 1525 487.08 1525 738 C1021.75 738 518.5 738 0 738 C0 494.46 0 250.92 0 0 Z " fill="#E5E4E4" transform="translate(0,0)"/>
<path d="M0 0 C149.82 0 299.64 0 454 0 C454 0.66 454 1.32 454 2 C454.70125 2.020625 455.4025 2.04125 456.125 2.0625 C460.48541042 3.48437296 462.75155753 6.03601178 465 10 C465.86477535 14.03158899 465.80595076 17.97243229 465.75504684 22.08349514 C465.76376749 23.30480433 465.77248813 24.52611352 465.78147304 25.78443208 C465.79961102 29.17782519 465.79085991 32.56922646 465.77080533 35.9624816 C465.75559107 39.65255478 465.77514206 43.34247041 465.79026532 47.03252131 C465.81194819 53.50079935 465.81127062 59.96877701 465.79598236 66.43706894 C465.77331009 76.05554557 465.78487795 85.67376827 465.8032322 95.29224314 C465.83485012 112.46988035 465.83207894 129.6473838 465.81475873 146.82503378 C465.79967521 161.85792936 465.79572058 176.89077586 465.80289459 191.92367744 C465.8033529 192.92020495 465.80381121 193.91673246 465.80428341 194.94345777 C465.8061514 198.98853073 465.80806179 203.03360367 465.81004199 207.07867658 C465.82840334 245.03852219 465.81174387 282.99828253 465.77946061 320.95811498 C465.75098834 354.69339513 465.75353204 388.4285394 465.78222656 422.16381836 C465.8143456 460.05198568 465.82709905 497.94007762 465.80855298 535.82825667 C465.80662863 539.86634002 465.8047516 543.9044234 465.80289459 547.94250679 C465.80242013 548.93681025 465.80194566 549.93111371 465.80145682 550.95554758 C465.79462814 565.97940302 465.80262083 581.00320402 465.81777191 596.02705193 C465.83491183 613.10836971 465.83067212 630.1895326 465.79808745 647.27083104 C465.78044682 656.83408363 465.7793522 666.39700095 465.80196449 675.96024497 C465.81539759 682.34483007 465.80708436 688.72914583 465.78093588 695.11369095 C465.76663573 698.75376051 465.76183739 702.39316304 465.78337178 706.03321206 C465.80632334 709.95271959 465.78300035 713.87117077 465.75504684 717.79066372 C465.76909384 718.9227754 465.78314084 720.05488707 465.7976135 721.22130516 C465.70852862 727.43807557 464.98509054 731.81259136 460.79444343 736.58252803 C457.77185942 738.97013638 454.77660091 739.09179488 451.09333992 738.98438263 C450.31116954 738.99361259 449.52899916 739.00284254 448.72312664 739.0123522 C446.09839863 739.0335518 443.47758447 738.99764769 440.85305786 738.96203613 C438.95917334 738.96553582 437.06529259 738.97255173 435.1714325 738.98278809 C429.95334005 739.00075713 424.73655741 738.96859431 419.51863137 738.92858183 C413.81073972 738.89369872 408.10291039 738.90533535 402.39494133 738.91112518 C391.30998249 738.9153822 380.22554119 738.87840825 369.14071541 738.82711455 C356.32154208 738.76956836 343.50268067 738.76315962 330.68334961 738.75683594 C296.83048423 738.71481408 262.97773438 738.60312539 229.125 738.5 C153.51375 738.335 77.9025 738.17 0 738 C0 494.46 0 250.92 0 0 Z " fill="#E5E4E4" transform="translate(0,0)"/>
<path d="M0 0 C149.82 0 299.64 0 454 0 C454 0.66 454 1.32 454 2 C454.70125 2.020625 455.4025 2.04125 456.125 2.0625 C460.48541042 3.48437296 462.75155753 6.03601178 465 10 C465.86477535 14.03158899 465.80595076 17.97243229 465.75504684 22.08349514 C465.76376749 23.30480433 465.77248813 24.52611352 465.78147304 25.78443208 C465.79961102 29.17782519 465.79085991 32.56922646 465.77080533 35.9624816 C465.75559107 39.65255478 465.77514206 43.34247041 465.79026532 47.03252131 C465.81194819 53.50079935 465.81127062 59.96877701 465.79598236 66.43706894 C465.77331009 76.05554557 465.78487795 85.67376827 465.8032322 95.29224314 C465.83485012 112.46988035 465.83207894 129.6473838 465.81475873 146.82503378 C465.79967521 161.85792936 465.79572058 176.89077586 465.80289459 191.92367744 C465.8033529 192.92020495 465.80381121 193.91673246 465.80428341 194.94345777 C465.8061514 198.98853073 465.80806179 203.03360367 465.81004199 207.07867658 C465.82840334 245.03852219 465.81174387 282.99828253 465.77946061 320.95811498 C465.75098834 354.69339513 465.75353204 388.4285394 465.78222656 422.16381836 C465.8143456 460.05198568 465.82709905 497.94007762 465.80855298 535.82825667 C465.80662863 539.86634002 465.8047516 543.9044234 465.80289459 547.94250679 C465.80242013 548.93681025 465.80194566 549.93111371 465.80145682 550.95554758 C465.79462814 565.97940302 465.80262083 581.00320402 465.81777191 596.02705193 C465.83491183 613.10836971 465.83067212 630.1895326 465.79808745 647.27083104 C465.78044682 656.83408363 465.7793522 666.39700095 465.80196449 675.96024497 C465.81539759 682.34483007 465.80708436 688.72914583 465.78093588 695.11369095 C465.76663573 698.75376051 465.76183739 702.39316304 465.78337178 706.03321206 C465.80632334 709.95271959 465.78300035 713.87117077 465.75504684 717.79066372 C465.76909384 718.9227754 465.78314084 720.05488707 465.7976135 721.22130516 C465.70852862 727.43807557 464.98509054 731.81259136 460.79444343 736.58252803 C457.77185942 738.97013638 454.77660091 739.09179488 451.09333992 738.98438263 C450.31116954 738.99361259 449.52899916 739.00284254 448.72312664 739.0123522 C446.09839863 739.0335518 443.47758447 738.99764769 440.85305786 738.96203613 C438.95917334 738.96553582 437.06529259 738.97255173 435.1714325 738.98278809 C429.95334005 739.00075713 424.73655741 738.96859431 419.51863137 738.92858183 C413.81073972 738.89369872 408.10291039 738.90533535 402.39494133 738.91112518 C391.30998249 738.9153822 380.22554119 738.87840825 369.14071541 738.82711455 C356.32154208 738.76956836 343.50268067 738.76315962 330.68334961 738.75683594 C296.83048423 738.71481408 262.97773438 738.60312539 229.125 738.5 C153.51375 738.335 77.9025 738.17 0 738 C0 494.46 0 250.92 0 0 Z M27 83 C27 254.27 27 425.54 27 602 C161.97 602 296.94 602 436 602 C436 430.73 436 259.46 436 83 C301.03 83 166.06 83 27 83 Z " fill="#52B1D4" transform="translate(0,0)"/>
<path d="M0 0 C117.62135922 0 117.62135922 0 130 3 C130 3.66 130 4.32 130 5 C131.27875 4.938125 132.5575 4.87625 133.875 4.8125 C141.64224913 4.82469348 148.46842595 7.43160403 155.2109375 11.1328125 C157.11688474 12.05665592 158.93446632 12.5541359 161 13 C161 13.99 161 14.98 161 16 C161.556875 16.12375 162.11375 16.2475 162.6875 16.375 C166.95866233 17.5293682 169.99184438 18.70535337 173 22 C173.66 22.33 174.32 22.66 175 23 C175 23.66 175 24.32 175 25 C176.175625 25.12375 176.175625 25.12375 177.375 25.25 C178.24125 25.4975 179.1075 25.745 180 26 C180.69937532 27.31647119 181.36729133 28.65022151 182 30 C182.59941406 30.14179688 183.19882813 30.28359375 183.81640625 30.4296875 C189.9083202 32.02077773 194.82588467 38.70051186 198.67578125 43.421875 C199.9843473 45.03674757 199.9843473 45.03674757 201.55078125 46.5 C203.44077549 48.45622045 204.5878534 50.72356456 205.8828125 53.09765625 C207.39496431 55.67254412 209.19427608 57.98614963 211.046875 60.32421875 C212 62 212 62 212 66 C212.66 66 213.32 66 214 66 C214.4021875 67.8253125 214.4021875 67.8253125 214.8125 69.6875 C215.48932253 72.45322086 216.12790292 74.21153175 217.625 76.6875 C219.2109324 79.35474995 219.26137747 80.95059621 219 84 C219.66 84 220.32 84 221 84 C221.10957031 84.71542969 221.21914062 85.43085938 221.33203125 86.16796875 C222.19974458 91.62115902 223.20735675 96.95835559 224.5625 102.3125 C226.24044081 109.54120461 226.81573852 116.59668792 227 124 C227.02723145 125.02722168 227.05446289 126.05444336 227.08251953 127.11279297 C227.54447461 147.61604449 226.63071178 167.54418487 221.625 187.5 C221.34813354 188.62075928 221.34813354 188.62075928 221.06567383 189.76416016 C219.76856177 194.48063808 217.79945571 198.13212908 215.10546875 202.20117188 C213.74651762 204.41246868 213.12591915 206.44919769 212.6875 209 C212.47673828 210.1446875 212.47673828 210.1446875 212.26171875 211.3125 C212.17535156 211.869375 212.08898438 212.42625 212 213 C211.34 213 210.68 213 210 213 C209.87625 213.5775 209.7525 214.155 209.625 214.75 C208.99351176 217.02335767 208.11141809 218.9253529 207 221 C206.34 221 205.68 221 205 221 C204.6596875 222.299375 204.6596875 222.299375 204.3125 223.625 C202.75554447 227.62859994 200.83507386 229.80145513 198 233 C197.67 233.66 197.34 234.32 197 235 C196.2575 235.433125 195.515 235.86625 194.75 236.3125 C191.84034032 237.95106053 191.84034032 237.95106053 189.3125 240.6875 C188.549375 241.450625 187.78625 242.21375 187 243 C186.34 243 185.68 243 185 243 C184.814375 243.5775 184.62875 244.155 184.4375 244.75 C182.6174423 247.59878597 180.6372378 248.50110931 177.65625 249.97265625 C175.66952185 251.04647811 175.66952185 251.04647811 174 254 C172.1953125 255.1328125 172.1953125 255.1328125 170.125 256.125 C169.10792969 256.62386719 169.10792969 256.62386719 168.0703125 257.1328125 C166 258 166 258 163.8046875 258.4296875 C163.20914062 258.61789062 162.61359375 258.80609375 162 259 C161.67 259.99 161.34 260.98 161 262 C159.02 262.33 157.04 262.66 155 263 C155 263.66 155 264.32 155 265 C151.37 265.33 147.74 265.66 144 266 C144 266.66 144 267.32 144 268 C133.21670881 271.33430714 122.09211748 272.38250238 110.92089844 273.65869141 C107.2780307 274.08436251 103.6393313 274.54508359 100 275 C67 275 34 275 0 275 C0 184.25 0 93.5 0 0 Z " fill="#53B1D4" transform="translate(1058,317)"/>
<path d="M0 0 C0.90126617 -0.0049649 1.80253235 -0.00992981 2.73110962 -0.01504517 C5.7402624 -0.02974628 8.74936197 -0.03649215 11.75854492 -0.04199219 C12.79283819 -0.04481956 13.82713146 -0.04764694 14.89276695 -0.05056 C20.39742669 -0.06560728 25.90205999 -0.07479353 31.40673828 -0.07910156 C35.91333308 -0.08344225 40.41973168 -0.09715162 44.92626953 -0.12011719 C110.11235169 -0.44596786 110.11235169 -0.44596786 132.42651367 7.16113281 C134.42020398 7.53033472 136.41930444 7.87438864 138.42651367 8.16113281 C138.42651367 8.82113281 138.42651367 9.48113281 138.42651367 10.16113281 C139.18963867 10.30550781 139.95276367 10.44988281 140.73901367 10.59863281 C143.42651367 11.16113281 143.42651367 11.16113281 146.42651367 12.16113281 C146.42651367 12.82113281 146.42651367 13.48113281 146.42651367 14.16113281 C147.06459961 14.27070313 147.70268555 14.38027344 148.36010742 14.49316406 C149.18639648 14.65171875 150.01268555 14.81027344 150.86401367 14.97363281 C151.68772461 15.12445313 152.51143555 15.27527344 153.36010742 15.43066406 C154.38297852 15.79224609 154.38297852 15.79224609 155.42651367 16.16113281 C155.75651367 17.15113281 156.08651367 18.14113281 156.42651367 19.16113281 C157.14194336 19.24492187 157.85737305 19.32871094 158.59448242 19.41503906 C162.05231343 20.32599868 163.9820773 21.83998716 166.73901367 24.09863281 C167.62202148 24.80890625 168.5050293 25.51917969 169.41479492 26.25097656 C170.07866211 26.88132812 170.7425293 27.51167969 171.42651367 28.16113281 C171.42651367 28.82113281 171.42651367 29.48113281 171.42651367 30.16113281 C172.00401367 30.26425781 172.58151367 30.36738281 173.17651367 30.47363281 C175.80778382 31.27763202 177.4133946 32.29180796 179.42651367 34.16113281 C179.42651367 35.15113281 179.42651367 36.14113281 179.42651367 37.16113281 C180.08651367 37.16113281 180.74651367 37.16113281 181.42651367 37.16113281 C181.42651367 37.82113281 181.42651367 38.48113281 181.42651367 39.16113281 C182.01561523 39.41507812 182.6047168 39.66902344 183.21166992 39.93066406 C191.3492247 44.45152783 197.95207196 55.71765714 201.42651367 64.16113281 C201.42651367 64.82113281 201.42651367 65.48113281 201.42651367 66.16113281 C202.08651367 66.16113281 202.74651367 66.16113281 203.42651367 66.16113281 C203.42651367 67.48113281 203.42651367 68.80113281 203.42651367 70.16113281 C204.08651367 70.16113281 204.74651367 70.16113281 205.42651367 70.16113281 C209.42651367 84.16113281 209.42651367 84.16113281 210.48901367 87.91503906 C211.13041881 90.13590435 211.8205114 92.343126 212.55151367 94.53613281 C213.5903773 98.8399964 213.60608072 102.7617402 213.42651367 107.16113281 C214.08651367 107.16113281 214.74651367 107.16113281 215.42651367 107.16113281 C217.24460041 132.58188135 217.48171268 157.320735 211.42651367 182.16113281 C210.76651367 182.16113281 210.10651367 182.16113281 209.42651367 182.16113281 C209.41233398 183.07894531 209.3981543 183.99675781 209.38354492 184.94238281 C209.11529193 191.8444599 208.80624179 196.7226948 204.62182617 202.29394531 C203.2206283 204.4827446 202.82349227 206.30061513 202.36401367 208.84863281 C201.6360683 212.85579875 200.41747129 215.26364262 197.42651367 218.16113281 C196.76651367 218.16113281 196.10651367 218.16113281 195.42651367 218.16113281 C195.27182617 219.24394531 195.27182617 219.24394531 195.11401367 220.34863281 C193.74290121 225.95772925 190.51972481 229.24984217 186.42651367 233.16113281 C185.75620117 233.85207031 185.08588867 234.54300781 184.39526367 235.25488281 C183.32791992 236.35316406 183.32791992 236.35316406 182.23901367 237.47363281 C181.56483398 238.17101562 180.8906543 238.86839844 180.19604492 239.58691406 C178.42651367 241.16113281 178.42651367 241.16113281 176.42651367 241.16113281 C176.32725586 241.76828125 176.22799805 242.37542969 176.12573242 243.00097656 C174.63799015 247.59718592 169.17594933 249.74317831 165.17651367 251.97363281 C162.42651367 253.16113281 162.42651367 253.16113281 159.42651367 253.16113281 C159.24088867 253.73863281 159.05526367 254.31613281 158.86401367 254.91113281 C155.17008309 260.6929372 147.66250174 262.13835907 141.48901367 264.08300781 C138.52738271 265.12562279 135.88425757 266.37905221 133.11401367 267.84863281 C129.1675746 269.91641559 125.89809042 270.73928595 121.42651367 271.16113281 C119.8985743 271.63144173 119.8985743 271.63144173 118.33976746 272.11125183 C113.78686881 273.4465333 109.21609516 273.86424585 104.50195312 274.27172852 C103.54258252 274.35602017 102.58321192 274.44031183 101.59476948 274.52715778 C90.47275849 275.42504118 79.37047155 275.43178802 68.21948242 275.39160156 C65.98887662 275.39040551 63.7582703 275.3899575 61.52766418 275.39021301 C56.90838358 275.3886665 52.28918251 275.38050872 47.66992188 275.36694336 C41.73828408 275.34974513 35.80673135 275.34613593 29.87507153 275.34688854 C25.29508141 275.34661776 20.71511003 275.34115482 16.13512611 275.3338871 C13.9449509 275.33070196 11.75477358 275.32873338 9.56459618 275.32799339 C6.5304939 275.32584004 3.49648478 275.31712405 0.46240234 275.30639648 C-0.89699715 275.30707626 -0.89699715 275.30707626 -2.28385925 275.30776978 C-8.45899056 275.27562858 -8.45899056 275.27562858 -9.57348633 274.16113281 C-9.6710748 272.70252625 -9.69904096 271.2392036 -9.69932747 269.77733612 C-9.70193522 268.82499478 -9.70454296 267.87265344 -9.70722973 266.89145327 C-9.70499901 265.83281934 -9.70276829 264.77418542 -9.70046997 263.68347168 C-9.70202996 262.56851303 -9.70358995 261.45355437 -9.70519722 260.30480909 C-9.70921248 256.53750284 -9.70601554 252.7702363 -9.70288086 249.00292969 C-9.70423467 246.31478252 -9.70597806 243.62663816 -9.70819092 240.93849182 C-9.71264935 234.37631564 -9.71167183 227.81415086 -9.70877828 221.25197423 C-9.70652453 215.9211506 -9.7062116 210.59033019 -9.70730209 205.25950623 C-9.70745533 204.50225682 -9.70760856 203.74500741 -9.70776644 202.96481106 C-9.70808615 201.42671732 -9.70841036 199.88862358 -9.70873903 198.35052985 C-9.71159403 183.9106494 -9.70830647 169.4707753 -9.70293866 155.03089589 C-9.6984706 142.62720216 -9.69924653 130.22351778 -9.70385742 117.81982422 C-9.70920282 103.43339715 -9.71131934 89.04697565 -9.70824516 74.66054773 C-9.70792659 73.12795162 -9.70761222 71.59535551 -9.70730209 70.0627594 C-9.70714782 69.308593 -9.70699354 68.55442659 -9.70683459 67.77740666 C-9.70596933 62.4498646 -9.7074325 57.12232606 -9.70978165 51.79478455 C-9.71257947 45.30677453 -9.71184177 38.81877661 -9.7065009 32.33076799 C-9.70386364 29.01729317 -9.703393 25.70384287 -9.70615005 22.39036751 C-9.70885838 18.80648909 -9.70548434 15.22266861 -9.70046997 11.63879395 C-9.70270069 10.58016002 -9.70493141 9.5215261 -9.70722973 8.43081236 C-9.70462199 7.47847102 -9.70201424 6.52612967 -9.69932747 5.5449295 C-9.69916512 4.7165421 -9.69900276 3.88815469 -9.69883549 3.03466463 C-9.38112377 -1.71401498 -3.61758279 0.00470534 0 0 Z " fill="#52B1D4" transform="translate(795.573486328125,316.8388671875)"/>
<path d="M0 0 C12.66970387 -0.55353075 12.66970387 -0.55353075 18 3 C18 3.66 18 4.32 18 5 C18.70125 5.12375 19.4025 5.2475 20.125 5.375 C23.17656387 6.03838345 26.05340938 6.97211955 29 8 C29 8.66 29 9.32 29 10 C29.55171875 10.12246094 30.1034375 10.24492187 30.671875 10.37109375 C33.29591255 11.07993611 35.7336953 12.03611256 38.25 13.0625 C39.14203125 13.42472656 40.0340625 13.78695312 40.953125 14.16015625 C41.96632813 14.57587891 41.96632813 14.57587891 43 15 C43 15.66 43 16.32 43 17 C43.721875 17.103125 44.44375 17.20625 45.1875 17.3125 C48.27793421 18.06793947 50.41743841 19.15531315 53 21 C53 21.66 53 22.32 53 23 C53.825 23.0825 54.65 23.165 55.5 23.25 C59.76753921 24.16447269 63.19236894 25.92223178 67 28 C67 28.66 67 29.32 67 30 C67.68449219 30.11214844 68.36898437 30.22429687 69.07421875 30.33984375 C72.47738305 31.10771393 75.56743098 32.28413948 78.8125 33.5625 C79.97394531 34.01753906 81.13539063 34.47257812 82.33203125 34.94140625 C83.65267578 35.46541016 83.65267578 35.46541016 85 36 C85 36.66 85 37.32 85 38 C86.010625 38.268125 87.02125 38.53625 88.0625 38.8125 C91.87327442 39.8935156 95.38875208 41.37862338 99 43 C99 43.66 99 44.32 99 45 C99.66 45.103125 100.32 45.20625 101 45.3125 C103.49672534 45.88466622 105.8321801 46.54441799 108.25 47.375 C108.93578125 47.60960937 109.6215625 47.84421875 110.328125 48.0859375 C112 49 112 49 113 52 C113.721875 52.103125 114.44375 52.20625 115.1875 52.3125 C120.67492728 53.65387111 123.86963815 56.35970878 127 61 C127.50120544 63.97712708 127.50120544 63.97712708 127.50170898 67.31567383 C127.51108994 68.57080276 127.52047089 69.8259317 127.53013611 71.11909485 C127.51965396 72.48174725 127.50828443 73.84439307 127.49609375 75.20703125 C127.49624889 76.6156166 127.49774028 78.02420238 127.50050354 79.43278503 C127.5018861 82.38254716 127.4893591 85.33182225 127.46655273 88.28149414 C127.43824628 92.04402023 127.44088569 95.80573284 127.45364285 99.56831837 C127.46063441 102.47762369 127.4527701 105.38674449 127.44038582 108.29602623 C127.43589943 109.68215919 127.43550968 111.06831217 127.43945122 112.45444679 C127.46094869 126.6729915 127.46094869 126.6729915 124 133 C120.59809993 134.21301836 117.21692872 134.19976323 113.625 134.25 C111.97371094 134.28867187 111.97371094 134.28867187 110.2890625 134.328125 C107 134 107 134 101 131 C101 174.23 101 217.46 101 262 C100.34 262 99.68 262 99 262 C98.9175 262.78375 98.835 263.5675 98.75 264.375 C98 267 98 267 95.9375 268.3125 C95.298125 268.539375 94.65875 268.76625 94 269 C94 269.66 94 270.32 94 271 C90.30164533 273.46556978 88.48657615 273.24690308 84.07148743 273.24050903 C83.00796068 273.24307231 83.00796068 273.24307231 81.92294854 273.24568737 C79.54138515 273.248988 77.16010199 273.23796929 74.77856445 273.22705078 C73.07371019 273.22648679 71.36885544 273.22680299 69.66400146 273.22793579 C65.02998703 273.22851078 60.39607564 273.21673286 55.7620852 273.20278788 C50.92140742 273.19030484 46.0807274 273.18911194 41.24003601 273.18673706 C32.07091914 273.18051515 22.90184984 273.16409471 13.73275393 273.14403808 C3.29516289 273.1217012 -7.1424304 273.11069122 -17.58003938 273.10064721 C-39.05338616 273.0797291 -60.52669009 273.04453931 -82 273 C-82 272.34 -82 271.68 -82 271 C-82.5775 270.9175 -83.155 270.835 -83.75 270.75 C-86.69632751 269.76789083 -88.03027912 268.37724934 -90 266 C-91.06870865 262.83175218 -91.1234411 259.87251094 -91.12025452 256.54571533 C-91.12162918 255.43796249 -91.12300385 254.33020966 -91.12442017 253.18888855 C-91.12082489 251.97832291 -91.11722961 250.76775726 -91.11352539 249.52050781 C-91.11367142 248.24220596 -91.11381744 246.96390411 -91.1139679 245.64686584 C-91.11425475 242.1451342 -91.108376 238.64343682 -91.10139394 235.14171314 C-91.09514189 231.48085008 -91.09455513 227.81998623 -91.09336853 224.15911865 C-91.09026068 217.22833949 -91.08205464 210.2975761 -91.07201904 203.36680388 C-91.06084096 195.47569053 -91.05534318 187.58457643 -91.05032361 179.69345713 C-91.03987159 163.46229552 -91.0222827 147.23114977 -91 131 C-91.81322723 131.3185218 -91.81322723 131.3185218 -92.6428833 131.64347839 C-93.71539337 132.05621758 -93.71539337 132.05621758 -94.80957031 132.47729492 C-95.5167218 132.75151779 -96.22387329 133.02574066 -96.95245361 133.30827332 C-99.60671821 134.20496882 -101.95693633 134.36497085 -104.75 134.3125 C-105.65234375 134.30863281 -106.5546875 134.30476562 -107.484375 134.30078125 C-110.08103597 133.99031092 -111.75927398 133.31407063 -114 132 C-114 131.34 -114 130.68 -114 130 C-114.66 130 -115.32 130 -116 130 C-118.37018005 125.78898151 -119.37877774 122.74723946 -119.40405273 117.92211914 C-119.41673691 116.74392105 -119.42942108 115.56572296 -119.44248962 114.3518219 C-119.43955399 113.09232224 -119.43661835 111.83282257 -119.43359375 110.53515625 C-119.4388356 109.22848495 -119.44407745 107.92181366 -119.44947815 106.57554626 C-119.45838732 103.81597197 -119.45601168 101.05668742 -119.44604492 98.29711914 C-119.43455966 94.77541183 -119.45476932 91.25470793 -119.48396206 87.73313236 C-119.50680991 84.35458862 -119.49985374 80.97627524 -119.49609375 77.59765625 C-119.50732773 76.34018082 -119.51856171 75.08270538 -119.53013611 73.78712463 C-119.47628688 67.00585016 -119.23663571 62.42657403 -115 57 C-113.29589844 55.53442383 -113.29589844 55.53442383 -111.609375 54.70703125 C-110.98571045 54.38863281 -110.3620459 54.07023437 -109.71948242 53.7421875 C-109.06955322 53.43539062 -108.41962402 53.12859375 -107.75 52.8125 C-107.08266846 52.47863281 -106.41533691 52.14476562 -105.7277832 51.80078125 C-104.41522857 51.14618198 -103.09867666 50.49952272 -101.77783203 49.86181641 C-99.55762175 48.78555408 -97.37536536 47.64026869 -95.1875 46.5 C-92 45 -92 45 -90 45 C-90 44.34 -90 43.68 -90 43 C-89.01 43 -88.02 43 -87 43 C-87 42.34 -87 41.68 -87 41 C-79.57142857 38.85714286 -79.57142857 38.85714286 -76 38 C-76 37.34 -76 36.68 -76 36 C-75.01 36 -74.02 36 -73 36 C-73 35.34 -73 34.68 -73 34 C-70.87607494 33.3299166 -68.75082476 32.66403203 -66.625 32 C-65.44164062 31.62875 -64.25828125 31.2575 -63.0390625 30.875 C-60 30 -60 30 -58 30 C-58 29.34 -58 28.68 -58 28 C-53.23810214 25.10145348 -48.50496083 22.94871594 -43.3046875 20.94921875 C-40.69929842 19.87615172 -38.38587924 18.49117452 -36 17 C-35.34 17 -34.68 17 -34 17 C-34 16.34 -34 15.68 -34 15 C-33.01 15 -32.02 15 -31 15 C-31 14.34 -31 13.68 -31 13 C-30.01 12.7525 -29.02 12.505 -28 12.25 C-23.08945688 10.84415902 -18.55846322 8.63123494 -14.25390625 5.88671875 C-9.52926526 2.88608071 -5.46188015 2.24770432 0 2 C0 1.34 0 0.68 0 0 Z " fill="#51B1D4" transform="translate(227,193)"/>
<path d="M0 0 C14.39737851 -0.09435143 28.79470762 -0.16414818 43.19233418 -0.20724869 C49.88069764 -0.22768459 56.56882717 -0.25595422 63.25708008 -0.30175781 C69.73459572 -0.34583091 76.21191143 -0.36926413 82.68956566 -0.37950897 C85.13739346 -0.38679178 87.58521272 -0.40100546 90.03295326 -0.42292023 C107.37316907 -0.57172231 123.92084306 0.97914103 141 4 C141 4.66 141 5.32 141 6 C141.61488281 6.13277344 142.22976563 6.26554687 142.86328125 6.40234375 C143.67152344 6.57894531 144.47976563 6.75554687 145.3125 6.9375 C146.11300781 7.11152344 146.91351562 7.28554688 147.73828125 7.46484375 C150 8 150 8 153 9 C153 9.66 153 10.32 153 11 C153.66 11 154.32 11 155 11 C155 11.66 155 12.32 155 13 C155.804375 13.12375 156.60875 13.2475 157.4375 13.375 C158.283125 13.58125 159.12875 13.7875 160 14 C160.33 14.66 160.66 15.32 161 16 C162.05445313 16.56203125 163.10890625 17.1240625 164.1953125 17.703125 C168.38223862 20.01802233 170.97979271 22.99755256 173.875 26.75 C174.3596875 27.33265625 174.844375 27.9153125 175.34375 28.515625 C178.84983582 32.98147733 179.71323231 36.33945524 180 42 C180.66 42 181.32 42 182 42 C182 42.99 182 43.98 182 45 C182.66 45 183.32 45 184 45 C185.42258812 48.82320557 186.24042276 51.91281305 186 56 C186.66 56 187.32 56 188 56 C188.10018279 60.07088917 188.17207471 64.14128401 188.21972656 68.21313477 C188.2396267 69.593145 188.2667574 70.97307337 188.30175781 72.3527832 C188.52756042 81.49446808 187.7043123 88.63476217 184 97 C183.649375 98.134375 183.29875 99.26875 182.9375 100.4375 C181.96616234 103.09248961 180.91540695 104.9249758 179 107 C178.34 107 177.68 107 177 107 C176.67 108.98 176.34 110.96 176 113 C175.34 113 174.68 113 174 113 C174 113.66 174 114.32 174 115 C171.91796875 116.9453125 171.91796875 116.9453125 169.1875 119.125 C168.29417969 119.84945312 167.40085937 120.57390625 166.48046875 121.3203125 C164 123 164 123 161 123 C160.63648438 123.92425781 160.63648438 123.92425781 160.265625 124.8671875 C158.71180026 127.48566993 157.54195788 127.99492181 154.75 129.125 C153.95207031 129.45242188 153.15414063 129.77984375 152.33203125 130.1171875 C149.57801071 131.15974804 146.81473779 132.13392683 144 133 C147.1632845 134.6720218 150.3821918 135.92221136 153.75 137.125 C154.73484375 137.47820312 155.7196875 137.83140625 156.734375 138.1953125 C157.48203125 138.46085938 158.2296875 138.72640625 159 139 C159 139.66 159 140.32 159 141 C159.825 141.185625 160.65 141.37125 161.5 141.5625 C166.12442451 143.46181721 169.60186626 146.34312512 173 150 C173 150.66 173 151.32 173 152 C173.5775 152.0825 174.155 152.165 174.75 152.25 C178.39482679 153.46494226 180.39180213 155.81739303 182.125 159.1875 C182.41375 159.785625 182.7025 160.38375 183 161 C183.66 161.33 184.32 161.66 185 162 C188 167.30769231 188 167.30769231 188 171 C188.66 171 189.32 171 190 171 C193.61719736 179.56740654 193.42813068 188.11120802 193.33618164 197.23291016 C193.31242041 199.75845909 193.31565914 202.28296 193.32226562 204.80859375 C193.31669253 206.42969374 193.30958498 208.05078934 193.30078125 209.671875 C193.30169266 210.41886658 193.30260406 211.16585815 193.30354309 211.93548584 C193.24425942 216.33907562 192.59246297 219.90152116 191 224 C190.53789097 225.66562375 190.07935639 227.33224477 189.625 229 C188.37043638 233.2413166 186.64257457 236.41973768 184 240 C183.690625 240.680625 183.38125 241.36125 183.0625 242.0625 C181.52882701 244.85919781 179.27205224 246.78620551 177 249 C176.67 249.66 176.34 250.32 176 251 C175.34 251 174.68 251 174 251 C174 251.66 174 252.32 174 253 C171.03812728 255.17204 168.49314009 256.83561997 165 258 C165 258.66 165 259.32 165 260 C164.41992188 260.31453125 163.83984375 260.6290625 163.2421875 260.953125 C159.64708518 262.92271901 156.15368044 264.89656124 152.75 267.1875 C148.15510408 270.21595413 143.99247726 271.28367791 138.5625 272 C134.12818731 272.5863554 130.23092177 273.57296973 126 275 C120.17373189 276.31254767 114.34944587 276.14042708 108.41088867 276.12939453 C107.25094391 276.13114685 106.09099915 276.13289917 104.89590454 276.13470459 C101.06991064 276.13909874 97.2439631 276.13619463 93.41796875 276.1328125 C90.76092979 276.13348601 88.10389224 276.13445483 85.44685364 276.13571167 C79.88456724 276.13752796 74.32229414 276.13513989 68.76000977 276.13037109 C62.32289577 276.12491612 55.88581338 276.12670223 49.44870013 276.1321975 C43.92079338 276.13672808 38.39289616 276.13737985 32.86498815 276.13475883 C29.563537 276.13319747 26.26210406 276.13338972 22.96065331 276.13629532 C19.28779293 276.13881942 15.61499441 276.13498531 11.94213867 276.12939453 C10.84242233 276.13141876 9.74270599 276.13344299 8.60966492 276.13552856 C7.11868286 276.13129883 7.11868286 276.13129883 5.59757996 276.12698364 C4.29433163 276.1264181 4.29433163 276.1264181 2.96475506 276.12584114 C1 276 1 276 0 275 C-0.09672647 273.52999954 -0.12371776 272.05535444 -0.12304783 270.58217525 C-0.12503888 269.62225042 -0.12702993 268.66232559 -0.12908131 267.67331213 C-0.12616847 266.60621419 -0.12325563 265.53911625 -0.12025452 264.43968201 C-0.12110894 263.31585068 -0.12196337 262.19201936 -0.12284368 261.03413254 C-0.12450176 257.23685056 -0.11897177 253.43961195 -0.11352539 249.64233398 C-0.112688 246.93286104 -0.11335704 244.22338897 -0.1139679 241.51391602 C-0.11449333 235.66440309 -0.11134453 229.81490129 -0.10573006 223.96539116 C-0.09761764 215.5078868 -0.0950001 207.05038784 -0.09374207 198.59288002 C-0.09155114 184.87254522 -0.08488995 171.15221635 -0.07543945 157.43188477 C-0.06626639 144.10050486 -0.05918504 130.76912656 -0.05493164 117.43774414 C-0.05466892 116.61658308 -0.05440619 115.79542202 -0.05413551 114.94937729 C-0.05283051 110.83002834 -0.05156679 106.71067938 -0.05032361 102.59133041 C-0.03994972 68.394216 -0.0223303 34.19710864 0 0 Z " fill="#52B1D4" transform="translate(1332,316)"/>
<path d="M0 0 C75 0 75 0 90 6 C91.47356103 6.29983764 92.95314466 6.57172222 94.4375 6.8125 C99.16885501 7.80149561 101.63931368 9.55314224 105 13 C105 13.66 105 14.32 105 15 C106.65 15.33 108.3 15.66 110 16 C110 16.66 110 17.32 110 18 C110.5976416 18.11537109 111.1952832 18.23074219 111.81103516 18.34960938 C115.3596544 19.40398386 117.73233113 22.01554304 120.375 24.5 C120.95427246 25.04172852 121.53354492 25.58345703 122.13037109 26.14160156 C129.13370356 32.84628867 135.55872313 40.93957016 136.1875 51 C136.125625 51.66 136.06375 52.32 136 53 C136.66 53 137.32 53 138 53 C138.99 57.455 138.99 57.455 140 62 C140.66 62 141.32 62 142 62 C142.65597861 65.1021087 143.29780599 68.20699586 143.9375 71.3125 C144.21110352 72.60510742 144.21110352 72.60510742 144.49023438 73.92382812 C146.55881256 84.04105597 147.17489596 94.001544 147.125 104.3125 C147.12101196 105.80656372 147.12101196 105.80656372 147.11694336 107.33081055 C146.98443175 128.0311365 146.98443175 128.0311365 145 132 C144.77532169 133.53668865 144.59203195 135.07968054 144.4375 136.625 C144.35371094 137.44226563 144.26992188 138.25953125 144.18359375 139.1015625 C144.12300781 139.72804688 144.06242188 140.35453125 144 141 C143.34 141 142.68 141 142 141 C142.0825 141.78375 142.165 142.5675 142.25 143.375 C141.90332092 148.40184662 140.00931135 152.42283228 138 157 C137.71511719 157.67933594 137.43023438 158.35867188 137.13671875 159.05859375 C135.86307419 162.09574616 134.51954438 165.07779926 133 168 C132.34 168 131.68 168 131 168 C130.90589844 168.55171875 130.81179688 169.1034375 130.71484375 169.671875 C129.8083856 172.62405565 128.33656482 174.72721344 126.5625 177.25 C125.94503906 178.14203125 125.32757812 179.0340625 124.69140625 179.953125 C123.85416016 180.96632813 123.85416016 180.96632813 123 182 C122.34 182 121.68 182 121 182 C121 182.66 121 183.32 121 184 C120.34 184 119.68 184 119 184 C119 184.66 119 185.32 119 186 C117.35546875 187.5078125 117.35546875 187.5078125 115.1875 189.125 C114.47980469 189.66382813 113.77210938 190.20265625 113.04296875 190.7578125 C111 192 111 192 108 192 C108 192.66 108 193.32 108 194 C107.01 194 106.02 194 105 194 C105 194.66 105 195.32 105 196 C103.02 196.66 101.04 197.32 99 198 C99 198.66 99 199.32 99 200 C97.44033782 200.508783 95.87710759 201.00663469 94.3125 201.5 C93.00732422 201.91765625 93.00732422 201.91765625 91.67578125 202.34375 C89.00608323 202.99850805 86.73603316 203.11831495 84 203 C84 203.66 84 204.32 84 205 C56.69658426 211.94996037 27.64051252 209 0 209 C0 140.03 0 71.06 0 0 Z " fill="#E5E4E4" transform="translate(825,350)"/>
<path d="M0 0 C66 0 66 0 78 3 C80.4093315 3.43827334 82.82521856 3.84486784 85.25 4.1875 C86.34828125 4.34605469 87.4465625 4.50460937 88.578125 4.66796875 C89.37734375 4.77753906 90.1765625 4.88710938 91 5 C91 5.66 91 6.32 91 7 C91.56847656 7.10957031 92.13695312 7.21914063 92.72265625 7.33203125 C97.81040897 8.37676178 102.37971295 9.59360049 107 12 C107.495 13.485 107.495 13.485 108 15 C109.65948148 16.01187895 111.32580562 17.0126546 113 18 C113 18.66 113 19.32 113 20 C113.61875 20.0825 114.2375 20.165 114.875 20.25 C117.67505419 21.23825442 117.74113932 22.40359985 119 25 C120.93330603 26.09166275 120.93330603 26.09166275 123 27 C124.75 28.5 124.75 28.5 126 30 C126 30.66 126 31.32 126 32 C126.66 32 127.32 32 128 32 C129.7265625 34.30078125 129.7265625 34.30078125 131.625 37.3125 C132.25664063 38.29863281 132.88828125 39.28476562 133.5390625 40.30078125 C135 43 135 43 135 46 C135.66 46 136.32 46 137 46 C137.84003448 48.7481128 138.67222151 51.49819581 139.5 54.25 C139.73847656 55.02730469 139.97695312 55.80460937 140.22265625 56.60546875 C140.44824219 57.35957031 140.67382812 58.11367188 140.90625 58.890625 C141.11572266 59.58188477 141.32519531 60.27314453 141.54101562 60.98535156 C142 63 142 63 142 67 C142.66 67 143.32 67 144 67 C145.57843895 78.89222515 146.32047977 90.57308254 146.26074219 102.56884766 C146.24997574 105.13077271 146.26074272 107.6920015 146.2734375 110.25390625 C146.30131245 137.94235733 146.30131245 137.94235733 141 146 C140.29329272 148.69254991 140.29329272 148.69254991 140 151 C139.34 151 138.68 151 138 151 C137.99742187 151.59425781 137.99484375 152.18851563 137.9921875 152.80078125 C137.45924546 164.22350563 131.54398001 171.9547948 123.85546875 180.00390625 C121.94939789 181.86670194 121.94939789 181.86670194 121 184 C120.34 184 119.68 184 119 184 C119 184.66 119 185.32 119 186 C117.35546875 187.5078125 117.35546875 187.5078125 115.1875 189.125 C114.47980469 189.66382813 113.77210937 190.20265625 113.04296875 190.7578125 C111 192 111 192 108 192 C108 192.66 108 193.32 108 194 C107.01 194 106.02 194 105 194 C105 194.66 105 195.32 105 196 C104.01 196 103.02 196 102 196 C102 196.66 102 197.32 102 198 C99.94175571 198.84378975 97.87820214 199.67463622 95.8125 200.5 C94.66394531 200.9640625 93.51539063 201.428125 92.33203125 201.90625 C89.28009923 202.90805652 87.16884928 203.23870804 84 203 C84 203.66 84 204.32 84 205 C55.82109181 211.80180543 30.24310352 209 0 209 C0 140.03 0 71.06 0 0 Z " fill="#E5E4E4" transform="translate(1098,350)"/>
<path d="M0 0 C16.5825 -0.0928125 16.5825 -0.0928125 33.5 -0.1875 C38.68493164 -0.22846802 38.68493164 -0.22846802 43.97460938 -0.27026367 C48.28222656 -0.28381348 48.28222656 -0.28381348 50.31555176 -0.28633118 C51.69904499 -0.29085886 53.08252843 -0.30123937 54.46594238 -0.31672668 C64.98731108 -0.4283519 74.72554863 0.72278351 85 3 C85 3.66 85 4.32 85 5 C86.32 5 87.64 5 89 5 C89 5.66 89 6.32 89 7 C89.7425 7.12375 90.485 7.2475 91.25 7.375 C93.80141485 7.95486701 95.7267573 8.73708739 98 10 C98 10.66 98 11.32 98 12 C98.66 12 99.32 12 100 12 C100 12.66 100 13.32 100 14 C100.59296875 14.23847656 101.1859375 14.47695313 101.796875 14.72265625 C104.46586398 16.27010199 105.57526129 17.86195487 107.25 20.4375 C107.77078125 21.21996094 108.2915625 22.00242187 108.828125 22.80859375 C110 25 110 25 110 28 C110.66 28 111.32 28 112 28 C112 28.99 112 29.98 112 31 C112.66 31 113.32 31 114 31 C115.88986749 44.47097549 117.5682072 61.50063955 109.5 73.21875 C107.41999626 75.68875444 105.10043815 77.70276516 102.55078125 79.67578125 C100.73154038 81.10743213 100.73154038 81.10743213 99 84 C98.34 84 97.68 84 97 84 C97 84.66 97 85.32 97 86 C96.34 86 95.68 86 95 86 C95 86.66 95 87.32 95 88 C82.95121734 93.00138148 71.16124 93.28054146 58.30078125 93.1953125 C56.80285796 93.19236473 55.3049326 93.19032882 53.80700684 93.18920898 C48.30880607 93.17880664 42.81064967 93.15088443 37.3125 93.125 C18.8428125 93.063125 18.8428125 93.063125 0 93 C0 62.31 0 31.62 0 0 Z " fill="#E5E4E4" transform="translate(1371,466)"/>
<path d="M0 0 C1.98 0 3.96 0 6 0 C6 0.66 6 1.32 6 2 C8.97 2.33 11.94 2.66 15 3 C15 3.66 15 4.32 15 5 C15.58007812 5.18175781 16.16015625 5.36351562 16.7578125 5.55078125 C22.29058521 7.33112891 27.3529423 9.3545317 32.3125 12.4375 C34.68068768 13.8143533 36.99276325 14.91007725 39.5 16 C43.97552879 17.9478215 47.94055514 20.29370343 52 23 C52 23.66 52 24.32 52 25 C52.9075 25.04125 53.815 25.0825 54.75 25.125 C59 26 59 26 71 32 C71 74.57 71 117.14 71 161 C66.38 161 61.76 161 57 161 C57 131.96 57 102.92 57 73 C55.02 72.01 55.02 72.01 53 71 C52.25 68.375 52.25 68.375 52 66 C40.12560146 65.95361912 28.25122455 65.91810151 16.37675381 65.89637566 C10.86270887 65.88594731 5.34872601 65.87180534 -0.1652832 65.84912109 C-5.48856655 65.82735902 -10.81179026 65.81542423 -16.13511467 65.81024551 C-18.16404089 65.80655581 -20.19296393 65.79935076 -22.2218647 65.78853989 C-25.0679843 65.77398036 -27.9138588 65.77202394 -30.76000977 65.77294922 C-32.01266129 65.76216339 -32.01266129 65.76216339 -33.2906189 65.75115967 C-38.15956798 65.76824008 -42.43887069 66.09589853 -47 68 C-50.65942946 71.99303218 -50.44156503 76.49030673 -50.43237305 81.64575195 C-50.4425647 82.5047963 -50.45275635 83.36384064 -50.46325684 84.24891663 C-50.4933694 87.07877133 -50.50265013 89.90828742 -50.51171875 92.73828125 C-50.52856672 94.70412825 -50.54671712 96.66996448 -50.56611633 98.63578796 C-50.61360956 103.80275102 -50.64342339 108.96967042 -50.66955566 114.13677979 C-50.69936452 119.41223775 -50.74589377 124.68754534 -50.79101562 129.96289062 C-50.8770411 140.30851508 -50.94438984 150.65417048 -51 161 C-55.95 161 -60.9 161 -66 161 C-66 118.1 -66 75.2 -66 31 C-62.04 29.515 -62.04 29.515 -58 28 C-50.07278825 24.74133074 -42.36523681 20.87937575 -34.81640625 16.828125 C-32.47110418 15.758869 -30.54555299 15.85858039 -28 16 C-28 15.34 -28 14.68 -28 14 C-25.95703125 12.6328125 -25.95703125 12.6328125 -23 11 C-22.44231934 10.67870117 -21.88463867 10.35740234 -21.31005859 10.02636719 C-19.44695029 8.9549408 -17.56900847 7.91372965 -15.6875 6.875 C-15.06166016 6.51535156 -14.43582031 6.15570313 -13.79101562 5.78515625 C-9.14444812 3.24026697 -5.2860363 2.38721243 0 2 C0 1.34 0 0.68 0 0 Z " fill="#E0E2E4" transform="translate(229,277)"/>
<path d="M0 0 C23.1 0 46.2 0 70 0 C70 0.66 70 1.32 70 2 C71.3921875 1.87625 71.3921875 1.87625 72.8125 1.75 C79.87575782 1.73561455 87.25988195 5.05237369 93 9 C93 9.66 93 10.32 93 11 C94.32 11.66 95.64 12.32 97 13 C97 13.66 97 14.32 97 15 C97.66 15 98.32 15 99 15 C106.93450955 23.7279605 109.39257249 32.85732722 109.3125 44.375 C109.30512817 45.62953979 109.30512817 45.62953979 109.29760742 46.90942383 C109.12552224 55.97698927 107.35340168 65.06549451 101 72 C100.01 72 99.02 72 98 72 C97.731875 72.639375 97.46375 73.27875 97.1875 73.9375 C96 76 96 76 93 77 C93 77.66 93 78.32 93 79 C88.91649931 82.35056467 85.3891845 83.58816748 80.23828125 84.56640625 C77.10047542 85.17425345 74.06923457 86.11464387 71 87 C67.0672066 87.94755019 63.41585595 88.12125403 59.3737793 88.11352539 C58.3915689 88.11370619 58.3915689 88.11370619 57.38951588 88.11389065 C55.28438145 88.11314836 53.1793372 88.10555153 51.07421875 88.09765625 C49.78181274 88.09664917 48.48940674 88.09564209 47.15783691 88.09460449 C42.33438224 88.0893762 37.51094022 88.07541493 32.6875 88.0625 C21.900625 88.041875 11.11375 88.02125 0 88 C0 58.96 0 29.92 0 0 Z " fill="#E5E4E4" transform="translate(1371,348)"/>
<path d="M0 0 C1.27644379 -0.00524185 2.55288757 -0.0104837 3.86801147 -0.0158844 C6.55262667 -0.02227834 9.23638219 -0.02246081 11.92089844 -0.01245117 C15.34151116 -0.0009319 18.76109597 -0.02124732 22.18157387 -0.05036831 C25.47522023 -0.07322789 28.76879299 -0.06626068 32.0625 -0.0625 C33.28039215 -0.07373398 34.4982843 -0.08496796 35.75308228 -0.09654236 C42.75882628 -0.03931161 47.46850158 0.59649803 53.3984375 4.43359375 C55.98986271 8.32073156 55.97231361 12.88417011 55.3984375 17.43359375 C54.57732259 20.21968884 53.54638416 22.75505154 52.3984375 25.43359375 C51.4084375 25.43359375 50.4184375 25.43359375 49.3984375 25.43359375 C49.3984375 26.09359375 49.3984375 26.75359375 49.3984375 27.43359375 C46.00664645 28.45610914 42.88231488 28.57821512 39.34814453 28.6105957 C38.12652618 28.62343094 36.90490784 28.63626617 35.64627075 28.64949036 C34.3295639 28.65687729 33.01285706 28.66426422 31.65625 28.671875 C30.64695749 28.67798829 30.64695749 28.67798829 29.61727524 28.68422508 C26.05719057 28.70504278 22.49714398 28.71936419 18.93701172 28.72875977 C15.26952296 28.73982844 11.60264019 28.7742449 7.93536568 28.81393147 C5.10597641 28.84012806 2.27673115 28.84845412 -0.55276871 28.85204124 C-2.5591014 28.8592505 -4.56533548 28.88567178 -6.57150269 28.91242981 C-17.78804896 28.88570601 -17.78804896 28.88570601 -22.6015625 24.43359375 C-23.3853125 23.75296875 -24.1690625 23.07234375 -24.9765625 22.37109375 C-27.49395102 17.82042988 -27.19068043 13.51377951 -26.6015625 8.43359375 C-25.7265625 5.43359375 -25.7265625 5.43359375 -23.6015625 3.43359375 C-15.94630922 0.09359935 -8.22365772 -0.01988863 0 0 Z " fill="#E3E4E4" transform="translate(217.6015625,656.56640625)"/>
<path d="M0 0 C2.97 0 5.94 0 9 0 C6.66666667 2.33333333 4.33333333 4.66666667 2 7 C1.69759635 9.24694891 1.69759635 9.24694891 1.75045234 11.89366621 C1.74570153 12.93661959 1.74095072 13.97957297 1.73605594 15.054131 C1.74102412 16.21116988 1.7459923 17.36820875 1.75111103 18.56030941 C1.74850375 19.78578923 1.74589646 21.01126905 1.74321017 22.27388462 C1.73796764 25.70161976 1.74177888 29.12913612 1.74926625 32.55685348 C1.75521003 36.2760175 1.74961444 39.99516632 1.74544543 43.71433026 C1.7397438 50.24130215 1.74152862 56.76823933 1.7481308 63.29520988 C1.75792131 73.00082232 1.75632306 82.70640919 1.7523805 92.41202456 C1.74609472 108.73695785 1.74928911 125.06187673 1.75797462 141.3868084 C1.76657744 157.55950492 1.77149506 173.73219496 1.77130699 189.90489388 C1.77129935 190.90942244 1.7712917 191.913951 1.77128382 192.94891982 C1.77124292 197.02624027 1.77117731 201.10356072 1.77107801 205.18088117 C1.77017113 243.46083284 1.7801288 281.74077463 1.79550768 320.02072287 C1.80913135 354.05719234 1.81536904 388.09365478 1.81469727 422.13012695 C1.81465685 424.31532911 1.81461649 426.50053127 1.81457619 428.68573343 C1.81455584 429.76603668 1.81453548 430.84633992 1.81451452 431.95937963 C1.81441373 437.39706799 1.81432314 442.83475636 1.81424427 448.27244473 C1.81422756 449.34513144 1.81421084 450.41781815 1.81419362 451.52301051 C1.81382871 479.93206845 1.81836432 508.34112549 1.82457083 536.75018269 C1.82479111 537.76034232 1.82501138 538.77050195 1.82523832 539.81127248 C1.82612659 543.8736914 1.82701498 547.93611032 1.82792928 551.99852923 C1.83109311 566.15223907 1.83259904 580.30594821 1.83304077 594.45965837 C1.83363704 612.69698198 1.83761486 630.93429978 1.84747223 649.1716209 C1.85259924 658.82465843 1.85499261 668.47768743 1.85347604 678.13072626 C1.8527443 684.56893015 1.85562513 691.00712572 1.86151985 697.44532694 C1.86478501 701.12004362 1.86643982 704.79474237 1.86375926 708.46945994 C1.86092092 712.41760106 1.86572446 716.36571081 1.87136555 720.31384945 C1.86931023 721.46854716 1.86725491 722.62324487 1.86513731 723.81293342 C1.86789705 724.85839032 1.8706568 725.90384722 1.87350017 726.98098463 C1.87379167 727.88475683 1.87408317 728.78852903 1.8743835 729.71968826 C1.90862447 732.1651528 1.90862447 732.1651528 3 735 C6.00847418 736.22520264 6.00847418 736.22520264 9 737 C9 737.33 9 737.66 9 738 C6.03 738 3.06 738 0 738 C0 494.46 0 250.92 0 0 Z " fill="#62B7D6" transform="translate(0,0)"/>
<path d="M0 0 C0 0.66 0 1.32 0 2 C0.7425 2.226875 1.485 2.45375 2.25 2.6875 C5.69657413 4.33245584 7.06400384 5.70163617 9 9 C9.69348643 13.30646512 9.47254143 17.29118786 7 21 C6.34 21 5.68 21 5 21 C4.773125 21.598125 4.54625 22.19625 4.3125 22.8125 C2.57570471 25.70715882 1.0816964 26.63035715 -2 28 C-7.61875647 28.86442407 -11.4451413 27.34776665 -16.17578125 24.48046875 C-18 23 -18 23 -19.0625 20.1875 C-19.041875 19.135625 -19.02125 18.08375 -19 17 C-19.04511719 16.34515625 -19.09023437 15.6903125 -19.13671875 15.015625 C-19.46949645 8.91087542 -17.85685726 6.14699121 -14 1.6875 C-9.47010909 -0.86056364 -5.08464979 -0.32057337 0 0 Z " fill="#5AB4D4" transform="translate(237,301)"/>
<path d="M0 0 C126.8 0 126.8 0 134 3 C134 3.33 134 3.66 134 4 C127.12653396 4.25937608 122.09660281 3.29029142 115 2 C77.38 1.67 39.76 1.34 1 1 C1.33 92.08 1.66 183.16 2 277 C1.34 277 0.68 277 0 277 C0 185.59 0 94.18 0 0 Z " fill="#A0CBDB" transform="translate(1331,315)"/>
<path d="M0 0 C36.63 0 73.26 0 111 0 C111 0.66 111 1.32 111 2 C112.15628906 1.96519531 112.15628906 1.96519531 113.3359375 1.9296875 C114.33882812 1.91164063 115.34171875 1.89359375 116.375 1.875 C117.87160156 1.84019531 117.87160156 1.84019531 119.3984375 1.8046875 C122 2 122 2 124 4 C121.14559413 3.85803484 118.29153804 3.71154174 115.4375 3.5625 C114.63763672 3.52318359 113.83777344 3.48386719 113.01367188 3.44335938 C112.22412109 3.40146484 111.43457031 3.35957031 110.62109375 3.31640625 C109.9036499 3.27974854 109.18620605 3.24309082 108.44702148 3.20532227 C105.28360342 2.9398893 102.1426287 2.44894696 99 2 C66.99 2 34.98 2 2 2 C2 92.42 2 182.84 2 276 C1.34 276 0.68 276 0 276 C0 184.92 0 93.84 0 0 Z " fill="#9BCADC" transform="translate(785,316)"/>
<path d="M0 0 C68 0 68 0 80 3 C76 4 76 4 65 2 C33.32 1.505 33.32 1.505 1 1 C1 69.31 1 137.62 1 208 C31.7338696 213.43409382 31.7338696 213.43409382 57 206 C59.79553492 205.78812788 62.57537631 205.62351281 65.375 205.5 C71.27188313 205.30184009 71.27188313 205.30184009 77 204 C79.33299825 203.96045766 81.66708189 203.95598268 84 204 C84 204.33 84 204.66 84 205 C56.69658426 211.94996037 27.64051252 209 0 209 C0 140.03 0 71.06 0 0 Z " fill="#B6D1DA" transform="translate(825,350)"/>
<path d="M0 0 C66 0 66 0 78 3 C73.77958719 4.0551032 70.21052795 3.93268878 65.9375 3.625 C64.85758789 3.55925781 64.85758789 3.55925781 63.75585938 3.4921875 C60.64477066 3.28420385 57.97097988 2.99032663 55 2 C37.18 1.67 19.36 1.34 1 1 C1 69.31 1 137.62 1 208 C20.8 208 40.6 208 61 208 C61 208.33 61 208.66 61 209 C40.87 209 20.74 209 0 209 C0 140.03 0 71.06 0 0 Z " fill="#B5D1DB" transform="translate(1098,350)"/>
<path d="M0 0 C0.67557292 0.16251975 1.35114584 0.3250395 2.04719067 0.49248409 C5.49652951 1.08534131 8.74360495 1.12276444 12.24494934 1.12025452 C12.96384313 1.12110894 13.68273692 1.12196337 14.42341536 1.12284368 C16.82632915 1.12448755 19.22917275 1.11899504 21.63208008 1.11352539 C23.35693358 1.11324326 25.0817872 1.11340176 26.80664062 1.1139679 C31.4859579 1.11425485 36.16524954 1.10837456 40.84456086 1.10139394 C45.73594677 1.09514346 50.62733325 1.09455526 55.51872253 1.09336853 C64.77983714 1.09026022 74.04093993 1.08205356 83.30204934 1.07201904 C93.8460985 1.06084239 104.39014823 1.05534354 114.93420184 1.05032361 C136.62280781 1.03987054 158.31140316 1.02228076 180 1 C178.93303204 2.47745228 178.93303204 2.47745228 177 4 C173.9290514 4.36914349 173.9290514 4.36914349 170.07148743 4.36076355 C169.36246959 4.36332682 168.65345176 4.3658901 167.92294854 4.36853105 C165.54125764 4.37348226 163.16019719 4.35695458 160.77856445 4.34057617 C159.07371028 4.33973019 157.368855 4.34020448 155.66400146 4.34190369 C151.02993409 4.34276618 146.39609858 4.32509939 141.7620852 4.30418181 C136.92141402 4.28545728 132.08073782 4.28366791 127.24003601 4.28010559 C118.07089059 4.27077269 108.90185218 4.24614208 99.73275393 4.21605712 C89.2951713 4.18255182 78.85758362 4.16603685 68.41996062 4.15097082 C46.94658063 4.1195936 25.47329705 4.06680893 4 4 C4 3.34 4 2.68 4 2 C2.68 1.67 1.36 1.34 0 1 C0 0.67 0 0.34 0 0 Z " fill="#8CC0CE" transform="translate(141,462)"/>
<path d="M0 0 C23.1 0 46.2 0 70 0 C70 0.66 70 1.32 70 2 C72.31 2 74.62 2 77 2 C77 2.33 77 2.66 77 3 C75.52093108 3.02689216 74.04172517 3.04634621 72.5625 3.0625 C71.32693359 3.07990234 71.32693359 3.07990234 70.06640625 3.09765625 C68 3 68 3 67 2 C64.94521547 1.87619162 62.8862104 1.82201797 60.82788086 1.79467773 C59.84639368 1.77962865 59.84639368 1.77962865 58.84507847 1.76427555 C56.71837007 1.73279019 54.5916431 1.70807836 52.46484375 1.68359375 C50.52019226 1.65561707 50.52019226 1.65561707 48.53625488 1.6270752 C43.6700759 1.55851747 38.80377915 1.49853527 33.9375 1.4375 C17.6334375 1.2209375 17.6334375 1.2209375 1 1 C1 29.05 1 57.1 1 86 C24.1 86 47.2 86 71 86 C71 86.33 71 86.66 71 87 C67.06402078 87.93010144 63.41364581 88.1212498 59.3737793 88.11352539 C58.3915689 88.11370619 58.3915689 88.11370619 57.38951588 88.11389065 C55.28438145 88.11314836 53.1793372 88.10555153 51.07421875 88.09765625 C49.78181274 88.09664917 48.48940674 88.09564209 47.15783691 88.09460449 C42.33438224 88.0893762 37.51094022 88.07541493 32.6875 88.0625 C21.900625 88.041875 11.11375 88.02125 0 88 C0 58.96 0 29.92 0 0 Z " fill="#B5D0D9" transform="translate(1371,348)"/>
<path d="M0 0 C1.67542976 0.28604898 3.34385343 0.61781233 5 1 C5 1.66 5 2.32 5 3 C6.32 3.33 7.64 3.66 9 4 C8.01 4.495 8.01 4.495 7 5 C5.02 4.01 3.04 3.02 1 2 C1 45.23 1 88.46 1 133 C0.34 133 -0.32 133 -1 133 C-1.02332856 115.80661031 -1.04097896 98.61322553 -1.05181217 81.41982365 C-1.05697522 73.437185 -1.06401809 65.45455617 -1.07543945 57.47192383 C-1.08538602 50.51676201 -1.09185336 43.56160731 -1.09408849 36.60643858 C-1.09539565 32.92148073 -1.09848179 29.23654322 -1.10573006 25.55159187 C-1.1137434 21.44462292 -1.11399116 17.33768963 -1.11352539 13.23071289 C-1.11712067 12.00001068 -1.12071594 10.76930847 -1.12442017 9.50131226 C-1.1230455 8.38926926 -1.12167084 7.27722626 -1.12025452 6.13148499 C-1.12117631 5.15899339 -1.1220981 4.18650179 -1.12304783 3.18454075 C-1 1 -1 1 0 0 Z " fill="#7FBBCE" transform="translate(327,322)"/>
<path d="M0 0 C0.33 0 0.66 0 1 0 C1 30.36 1 60.72 1 92 C12.859375 91.855625 24.71875 91.71125 36.9375 91.5625 C40.68730225 91.51939697 44.43710449 91.47629395 48.30053711 91.43188477 C51.6508952 91.38864924 51.6508952 91.38864924 55.00123596 91.34410095 C56.49783645 91.32483278 57.99446289 91.30752206 59.49110413 91.29173279 C61.75318744 91.26749309 64.01511159 91.23711543 66.27709961 91.20532227 C67.55395126 91.18977798 68.83080292 91.1742337 70.14634705 91.15821838 C72.89851807 91.32377447 72.89851807 91.32377447 74 90 C75.95796403 89.76769918 77.91605518 89.53637941 79.875 89.3125 C83.69846649 88.75022552 87.1410739 87.35955046 90.6875 85.875 C93 85 93 85 96 85 C96 84.34 96 83.68 96 83 C97.32 82.67 98.64 82.34 100 82 C99.67 82.66 99.34 83.32 99 84 C98.34 84 97.68 84 97 84 C97 84.66 97 85.32 97 86 C96.34 86 95.68 86 95 86 C95 86.66 95 87.32 95 88 C82.95121734 93.00138148 71.16124 93.28054146 58.30078125 93.1953125 C56.80285796 93.19236473 55.3049326 93.19032882 53.80700684 93.18920898 C48.30880607 93.17880664 42.81064967 93.15088443 37.3125 93.125 C18.8428125 93.063125 18.8428125 93.063125 0 93 C0 62.31 0 31.62 0 0 Z " fill="#B8D2DB" transform="translate(1371,466)"/>
<path d="M0 0 C0.66 0 1.32 0 2 0 C4.5012521 5.0025042 4.89309435 9.96967408 3.32421875 15.29296875 C2.60560593 17.21721634 1.80913106 19.11202752 1 21 C0.01 21 -0.98 21 -2 21 C-2 21.66 -2 22.32 -2 23 C-5.39907604 24.02741853 -8.52386362 24.13868481 -12.06616211 24.16113281 C-13.29100815 24.17074036 -14.51585419 24.1803479 -15.77781677 24.19024658 C-17.09766068 24.19449646 -18.41750458 24.19874634 -19.77734375 24.203125 C-21.14970399 24.20888101 -22.52206422 24.21463868 -23.89442444 24.22039795 C-26.76840589 24.23088735 -29.64235953 24.23674386 -32.51635742 24.24023438 C-36.19280122 24.24572297 -39.8688754 24.26976702 -43.54520321 24.29820633 C-46.37884081 24.31685765 -49.21238966 24.32203956 -52.04608345 24.32357025 C-54.05851149 24.32805517 -56.07089197 24.34668567 -58.08323669 24.36553955 C-59.92523399 24.3610379 -59.92523399 24.3610379 -61.80444336 24.35644531 C-62.88269882 24.36009094 -63.96095428 24.36373657 -65.07188416 24.36749268 C-68.38160692 23.95210649 -70.28903151 22.89610967 -73 21 C-70.29643686 19.64821843 -68.93887979 20.39313893 -66 21 C-63.93101129 21.08952014 -61.85949812 21.12787076 -59.78857422 21.12939453 C-58.55734833 21.13254669 -57.32612244 21.13569885 -56.05758667 21.13894653 C-54.72328658 21.13715692 -53.38898682 21.135106 -52.0546875 21.1328125 C-50.67896508 21.13348658 -49.30324277 21.13445748 -47.92752075 21.13571167 C-45.05111552 21.13718273 -42.17474144 21.13505246 -39.29833984 21.13037109 C-35.61177542 21.12466339 -31.92528363 21.12796311 -28.23872185 21.13394356 C-25.4008835 21.13755598 -22.5630624 21.13640763 -19.72522354 21.13381577 C-18.36565263 21.13314894 -17.00608016 21.13396639 -15.64651108 21.13629532 C-13.74855326 21.13883413 -11.85058995 21.13427864 -9.95263672 21.12939453 C-8.87295624 21.12859894 -7.79327576 21.12780334 -6.68087769 21.12698364 C-3.89790319 21.11651672 -3.89790319 21.11651672 -1 20 C-1 19.34 -1 18.68 -1 18 C-0.34 18 0.32 18 1 18 C1.02707139 15.75006641 1.04642829 13.50003905 1.0625 11.25 C1.07410156 9.99703125 1.08570313 8.7440625 1.09765625 7.453125 C1.02021027 4.71463499 0.82780815 2.58119707 0 0 Z " fill="#A6CBD8" transform="translate(269,661)"/>
<path d="M0 0 C0 43.23 0 86.46 0 131 C-0.33 131 -0.66 131 -1 131 C-1 88.43 -1 45.86 -1 2 C-2.98 2.99 -2.98 2.99 -5 4 C-10.71589663 4.99294277 -16.32202012 5.38113024 -22 4 C-22.33 3.01 -22.66 2.02 -23 1 C-22.45085937 1.16113281 -21.90171875 1.32226562 -21.3359375 1.48828125 C-13.50925114 3.20282291 -7.35682496 0 0 0 Z " fill="#B3D0D8" transform="translate(136,324)"/>
<path d="M0 0 C-0.9590625 0.4640625 -0.9590625 0.4640625 -1.9375 0.9375 C-3.93610821 1.8345163 -3.93610821 1.8345163 -5 3 C-6.78715644 3.20956883 -8.58043769 3.36811616 -10.375 3.5 C-13.52020509 3.73236344 -15.99627907 3.99875969 -19 5 C-20.51017174 5.08903619 -22.02399578 5.12197948 -23.53678894 5.12025452 C-24.46646988 5.12162918 -25.39615082 5.12300385 -26.35400391 5.12442017 C-27.37179932 5.12082489 -28.38959473 5.11722961 -29.43823242 5.11352539 C-30.51156326 5.11367142 -31.5848941 5.11381744 -32.69075012 5.1139679 C-36.24567675 5.1132701 -39.80055126 5.10548386 -43.35546875 5.09765625 C-45.81740795 5.0957916 -48.27934753 5.09436792 -50.74128723 5.09336853 C-57.22680686 5.08954706 -63.71230415 5.07971991 -70.19781494 5.06866455 C-76.81351418 5.05844249 -83.42921702 5.0538692 -90.04492188 5.04882812 C-103.02995745 5.03809734 -116.01497754 5.02121706 -129 5 C-129 4.67 -129 4.34 -129 4 C-127.789384 3.99191315 -126.57876801 3.98382629 -125.33146667 3.97549438 C-113.84398808 3.89753585 -102.35662074 3.80967765 -90.86928844 3.71247292 C-84.96553519 3.66282472 -79.06179716 3.61649568 -73.15795898 3.578125 C-67.44550927 3.54086986 -61.73319777 3.49440919 -56.0208683 3.44193649 C-53.85675834 3.42360365 -51.692619 3.40842063 -49.52846336 3.39665604 C-33.0057765 3.30374137 -16.19689039 -0.30560171 0 0 Z " fill="#D0DBE0" transform="translate(1187,588)"/>
<path d="M0 0 C1.32 0 2.64 0 4 0 C4.33 44.22 4.66 88.44 5 134 C5.66 134 6.32 134 7 134 C7.495 136.475 7.495 136.475 8 139 C4.19054246 136.54228546 4.19054246 136.54228546 3.37860966 134.23151779 C2.93750081 131.63163104 2.8772184 129.18399431 2.87974548 126.54571533 C2.87837082 125.43796249 2.87699615 124.33020966 2.87557983 123.18888855 C2.87917511 121.97832291 2.88277039 120.76775726 2.88647461 119.52050781 C2.88632858 118.24220596 2.88618256 116.96390411 2.8860321 115.64686584 C2.88574525 112.1451342 2.891624 108.64343682 2.89860606 105.14171314 C2.90485811 101.48085008 2.90544487 97.81998623 2.90663147 94.15911865 C2.90973932 87.22833949 2.91794536 80.2975761 2.92798096 73.36680388 C2.93915904 65.47569053 2.94465682 57.58457643 2.94967639 49.69345713 C2.96012841 33.46229552 2.9777173 17.23114977 3 1 C1.68 1.33 0.36 1.66 -1 2 C-0.67 1.34 -0.34 0.68 0 0 Z " fill="#7CB9CC" transform="translate(133,323)"/>
<path d="M0 0 C8.58863749 8.58863749 5.23872258 34.34191298 5.25561523 45.71948242 C5.18420384 53.9444878 4.702726 62.02500549 3.6875 70.1875 C3.51105957 71.60953735 3.51105957 71.60953735 3.33105469 73.06030273 C2.46638821 79.24841777 0.95846892 85.07012457 -1 91 C-1.85816854 87.89347833 -1.98788966 86.12058727 -1.125 83 C0.06862889 78.18542977 0.44463125 73.4459945 0.75390625 68.50390625 C1 66 1 66 2 64 C2.0950527 62.43254413 2.12794689 60.8611061 2.12939453 59.29077148 C2.13254669 58.31313339 2.13569885 57.3354953 2.13894653 56.32823181 C2.13591019 54.74069847 2.13591019 54.74069847 2.1328125 53.12109375 C2.13376923 52.03868912 2.13472595 50.95628448 2.13571167 49.84107971 C2.13639298 47.55038393 2.13454211 45.25968623 2.13037109 42.96899414 C2.12501701 39.44868672 2.13032044 35.92850659 2.13671875 32.40820312 C2.13605806 30.18749972 2.13477709 27.96679639 2.1328125 25.74609375 C2.13483673 24.68571396 2.13686096 23.62533417 2.13894653 22.53282166 C2.13579437 21.55833572 2.13264221 20.58384979 2.12939453 19.57983398 C2.12859894 18.71760727 2.12780334 17.85538055 2.12698364 16.96702576 C2.21711433 14.99708611 2.21711433 14.99708611 1 14 C0.76472227 11.65012738 0.58613583 9.29443961 0.4375 6.9375 C0.35371094 5.64714844 0.26992187 4.35679687 0.18359375 3.02734375 C0.12300781 2.02832031 0.06242187 1.02929688 0 0 Z " fill="#81C1D7" transform="translate(1280,413)"/>
<path d="M0 0 C14.91726884 -0.0234344 29.83453624 -0.04103071 44.75181961 -0.05181217 C51.67927926 -0.05695283 58.60672742 -0.0639527 65.53417969 -0.07543945 C72.22557482 -0.08652943 78.91695558 -0.09229267 85.60836029 -0.09487724 C88.15507952 -0.09671802 90.70179814 -0.10031251 93.24851227 -0.10573006 C96.82877485 -0.11304 100.40898891 -0.11398677 103.98925781 -0.11352539 C105.55157135 -0.1189183 105.55157135 -0.1189183 107.14544678 -0.12442017 C126.56594531 -0.09752279 126.56594531 -0.09752279 134 3 C134 3.33 134 3.66 134 4 C129.43460979 4.17227888 125.41768866 3.95357416 120.94487 3.00637817 C114.98377173 1.88795868 109.24594924 1.73093992 103.19458008 1.77294922 C102.07131317 1.77265717 100.94804626 1.77236511 99.79074097 1.77206421 C96.11692289 1.77344581 92.44331343 1.78895162 88.76953125 1.8046875 C86.20692557 1.80842179 83.64431844 1.8112668 81.08171082 1.81326294 C75.05069683 1.82009151 69.01977094 1.83581768 62.98879212 1.85596192 C56.11564315 1.8784146 49.24249043 1.88933777 42.36931384 1.89935279 C28.24616867 1.92018703 14.12308839 1.9553041 0 2 C0 1.34 0 0.68 0 0 Z " fill="#BBD4DB" transform="translate(1331,315)"/>
<path d="M0 0 C36.63 0 73.26 0 111 0 C111 0.66 111 1.32 111 2 C112.15628906 1.96519531 112.15628906 1.96519531 113.3359375 1.9296875 C114.33882812 1.91164063 115.34171875 1.89359375 116.375 1.875 C117.87160156 1.84019531 117.87160156 1.84019531 119.3984375 1.8046875 C122 2 122 2 124 4 C121.14559413 3.85803484 118.29153804 3.71154174 115.4375 3.5625 C114.63763672 3.52318359 113.83777344 3.48386719 113.01367188 3.44335938 C112.22412109 3.40146484 111.43457031 3.35957031 110.62109375 3.31640625 C109.9036499 3.27974854 109.18620605 3.24309082 108.44702148 3.20532227 C106 3 106 3 102.96472168 2.5 C98.3237691 1.914719 93.7896426 1.82453788 89.11743164 1.79467773 C88.15080597 1.78477814 87.1841803 1.77487854 86.18826294 1.76467896 C83.01225178 1.73324235 79.8362257 1.70837744 76.66015625 1.68359375 C74.45055262 1.6630088 72.24095279 1.64201193 70.03135681 1.62062073 C64.22983895 1.5655592 58.4282865 1.51607999 52.62670898 1.46777344 C46.70097798 1.41744186 40.7752969 1.36181676 34.84960938 1.30664062 C23.23311562 1.19925388 11.61657843 1.097766 0 1 C0 0.67 0 0.34 0 0 Z " fill="#BFD7DF" transform="translate(785,316)"/>
<path d="M0 0 C0.66 0 1.32 0 2 0 C2.99471095 3.31440723 3.12670425 6.32190727 3.12939453 9.77490234 C3.13254669 10.93645844 3.13569885 12.09801453 3.13894653 13.29476929 C3.1369223 14.5458548 3.13489807 15.79694031 3.1328125 17.0859375 C3.13376923 18.37561432 3.13472595 19.66529114 3.13571167 20.99404907 C3.13718446 23.72260741 3.13504825 26.45113298 3.13037109 29.1796875 C3.12468539 32.66532706 3.12794809 36.15088941 3.13394356 39.63652611 C3.13844217 42.97383596 3.13528456 46.31112546 3.1328125 49.6484375 C3.13483673 50.89547455 3.13686096 52.1425116 3.13894653 53.42733765 C3.13421829 55.17912827 3.13421829 55.17912827 3.12939453 56.96630859 C3.12820114 58.50041885 3.12820114 58.50041885 3.12698364 60.06552124 C2.99508588 63.11356102 2.56191916 66.00382987 2 69 C1.34 69 0.68 69 0 69 C0 69.66 0 70.32 0 71 C-0.66 70.67 -1.32 70.34 -2 70 C-1.67468292 69.30977249 -1.34936584 68.61954498 -1.01419067 67.90840149 C0.14689748 64.5787411 0.24073257 61.98863656 0.22705078 58.46557617 C0.22689972 57.16460495 0.22674866 55.86363373 0.22659302 54.52323914 C0.21638124 53.11314743 0.20594927 51.70305731 0.1953125 50.29296875 C0.19157959 48.84280086 0.18873393 47.39263043 0.18673706 45.94245911 C0.17912249 42.13661666 0.15949289 38.3309283 0.1373291 34.52514648 C0.11682363 30.63722823 0.10772531 26.74928494 0.09765625 22.86132812 C0.07624478 15.24081538 0.04213534 7.62042933 0 0 Z " fill="#A6CDD8" transform="translate(353,253)"/>
<path d="M0 0 C0.33 0 0.66 0 1 0 C1.31932434 1.60282217 1.62994514 3.2073779 1.9375 4.8125 C2.19853516 6.15248047 2.19853516 6.15248047 2.46484375 7.51953125 C3.78479902 16.10405789 4.16698351 24.63664472 4.125 33.3125 C4.12234131 34.30854248 4.11968262 35.30458496 4.11694336 36.33081055 C3.98443175 57.0311365 3.98443175 57.0311365 2 61 C1.77532169 62.53668865 1.59203195 64.07968054 1.4375 65.625 C1.35371094 66.44226563 1.26992188 67.25953125 1.18359375 68.1015625 C1.12300781 68.72804688 1.06242188 69.35453125 1 70 C0.34 70 -0.32 70 -1 70 C-1 71.98 -1 73.96 -1 76 C-1.99 76.495 -1.99 76.495 -3 77 C-2.85892253 75.54119891 -2.71197585 74.08296449 -2.5625 72.625 C-2.48128906 71.81289063 -2.40007813 71.00078125 -2.31640625 70.1640625 C-2 68 -2 68 -1 66 C-0.76970044 63.62876754 -0.58880058 61.25258057 -0.4375 58.875 C-0.31181641 56.95300781 -0.31181641 56.95300781 -0.18359375 54.9921875 C-0.12300781 54.00476563 -0.06242188 53.01734375 0 52 C0.66 52 1.32 52 2 52 C1.88190779 46.90950418 1.75767087 41.81920995 1.62768555 36.72900391 C1.5843192 34.99662374 1.54264537 33.26420037 1.50268555 31.53173828 C1.44502406 29.04446373 1.38131802 26.55740707 1.31640625 24.0703125 C1.29969376 23.29317902 1.28298126 22.51604553 1.26576233 21.71536255 C1.23526571 17.72725784 1.23526571 17.72725784 0 14 C-0.07116382 11.62597499 -0.08409085 9.24999323 -0.0625 6.875 C-0.05347656 5.59367187 -0.04445313 4.31234375 -0.03515625 2.9921875 C-0.02355469 2.00476563 -0.01195312 1.01734375 0 0 Z " fill="#88C3D6" transform="translate(968,421)"/>
<path d="M0 0 C1.24546405 2.49092811 0.7767578 3.41080733 0 6 C-0.66 6 -1.32 6 -2 6 C-2 26.79 -2 47.58 -2 69 C-4.65443553 66.34556447 -4.26335907 65.08368521 -4.29052734 61.3762207 C-4.30328705 60.19772049 -4.31604675 59.01922028 -4.32919312 57.80500793 C-4.33141876 56.52486313 -4.33364441 55.24471832 -4.3359375 53.92578125 C-4.3425943 52.61345016 -4.3492511 51.30111908 -4.35610962 49.94902039 C-4.36809863 47.16560584 -4.37178914 44.3823155 -4.37060547 41.59887695 C-4.37040297 38.0457128 -4.39762449 34.49335475 -4.43214989 30.94038105 C-4.4598612 27.53967017 -4.45857122 24.13910344 -4.4609375 20.73828125 C-4.47530853 19.4682576 -4.48967957 18.19823395 -4.50448608 16.88972473 C-4.46923926 10.04881173 -4.14216222 5.5504153 0 0 Z " fill="#92C5D4" transform="translate(112,250)"/>
<path d="M0 0 C0.83004547 -0.00175232 1.66009094 -0.00350464 2.51528931 -0.00531006 C5.24589153 -0.00969396 7.97642843 -0.00680279 10.70703125 -0.00341797 C12.61222343 -0.004092 14.51741553 -0.00506286 16.42260742 -0.00631714 C20.41032736 -0.00778942 24.39802486 -0.00565462 28.38574219 -0.00097656 C33.49004401 0.00472043 38.59429324 0.00143892 43.69859314 -0.00454903 C47.63114822 -0.00816729 51.56369088 -0.00701022 55.49624634 -0.00442123 C57.37806199 -0.00375547 59.25987879 -0.00456812 61.14169312 -0.00690079 C63.77417982 -0.00944807 66.40658206 -0.00555746 69.0390625 0 C69.81222809 -0.00202423 70.58539368 -0.00404846 71.38198853 -0.00613403 C75.53293116 0.01005101 79.44728785 0.31837729 83.51953125 1.12939453 C83.51953125 1.78939453 83.51953125 2.44939453 83.51953125 3.12939453 C82.83627777 3.05874786 82.15302429 2.9881012 81.44906616 2.91531372 C72.87489163 2.10668761 64.3493151 1.98267188 55.74609375 1.99658203 C54.24978622 1.99590597 52.75347879 1.99493345 51.25717163 1.99368286 C48.13921043 1.99221916 45.02127812 1.99431669 41.90332031 1.99902344 C37.94788107 2.0047099 33.99250987 2.00144003 30.03707314 1.99545097 C26.9517467 1.99180068 23.86643582 1.9930044 20.78110886 1.99557877 C19.32456834 1.99623626 17.86802632 1.99546186 16.41148758 1.99309921 C-1.95507345 0.98831577 -1.95507345 0.98831577 -18.48046875 7.12939453 C-17.3287352 4.66139406 -16.4326331 3.08155888 -14.48046875 1.12939453 C-9.68448152 -0.01077484 -4.90243079 -0.01283509 0 0 Z " fill="#86C2DA" transform="translate(197.48046875,341.87060546875)"/>
<path d="M0 0 C2 2 2 2 2.1953125 4.1640625 C2.16050781 5.38222656 2.16050781 5.38222656 2.125 6.625 C2.10695313 7.44226563 2.08890625 8.25953125 2.0703125 9.1015625 C2.04710937 9.72804688 2.02390625 10.35453125 2 11 C2.66 11 3.32 11 4 11 C7.6816609 62.47750865 7.6816609 62.47750865 2 71 C2.00222061 70.35076065 2.00444122 69.7015213 2.00672913 69.03260803 C2.02878002 62.30112252 2.04390577 55.56964719 2.05493164 48.83813477 C2.05997363 46.32283105 2.06680703 43.80753028 2.07543945 41.29223633 C2.08751094 37.68570225 2.09322949 34.07920677 2.09765625 30.47265625 C2.10281754 29.34038101 2.10797882 28.20810577 2.11329651 27.04151917 C2.11340981 25.48001381 2.11340981 25.48001381 2.11352539 23.88696289 C2.11685631 22.50463219 2.11685631 22.50463219 2.12025452 21.09437561 C2.2337198 19.01191638 2.2337198 19.01191638 1 18 C0.84417697 16.65984779 0.74955858 15.31241097 0.68359375 13.96484375 C0.64169922 13.15595703 0.59980469 12.34707031 0.55664062 11.51367188 C0.51732422 10.66353516 0.47800781 9.81339844 0.4375 8.9375 C0.39431641 8.08349609 0.35113281 7.22949219 0.30664062 6.34960938 C0.20023298 4.23327963 0.09958269 2.11666187 0 0 Z " fill="#87C3DA" transform="translate(1007,413)"/>
<path d="M0 0 C2 2 2 2 2 6 C2.66 6 3.32 6 4 6 C5.57843895 17.89222515 6.32047977 29.57308254 6.26074219 41.56884766 C6.24997574 44.13077271 6.26074272 46.6920015 6.2734375 49.25390625 C6.28277827 59.51277547 6.16774868 69.92963699 4 80 C3.01 80.495 3.01 80.495 2 81 C2.14019692 78.18711295 2.28687955 75.37483115 2.4375 72.5625 C2.49647461 71.35883789 2.49647461 71.35883789 2.55664062 70.13085938 C2.88671875 64.11328125 2.88671875 64.11328125 4 63 C4.10103255 60.20006403 4.13970088 57.42531356 4.1328125 54.625 C4.13376923 53.78533691 4.13472595 52.94567383 4.13571167 52.08056641 C4.13639348 50.30175705 4.13453917 48.52294523 4.13037109 46.74414062 C4.12502283 44.01166224 4.13031605 41.27934824 4.13671875 38.546875 C4.13605797 36.8229163 4.13477681 35.09895771 4.1328125 33.375 C4.13483673 32.55209473 4.13686096 31.72918945 4.13894653 30.88134766 C4.4857546 27.13620134 4.4857546 27.13620134 3 24 C2.71131944 20.54041557 2.55098503 17.08048569 2.37890625 13.61328125 C2.01219936 10.11633414 1.1419239 7.30556917 0 4 C0 2.68 0 1.36 0 0 Z " fill="#ACCFDC" transform="translate(1238,411)"/>
<path d="M0 0 C23.1 0 46.2 0 70 0 C70 0.66 70 1.32 70 2 C72.31 2 74.62 2 77 2 C77 2.33 77 2.66 77 3 C75.52093108 3.02689216 74.04172517 3.04634621 72.5625 3.0625 C71.32693359 3.07990234 71.32693359 3.07990234 70.06640625 3.09765625 C68 3 68 3 67 2 C64.9145818 1.8761366 62.82499859 1.82200933 60.73608398 1.79467773 C60.08244873 1.78477814 59.42881348 1.77487854 58.75537109 1.76467896 C56.58564936 1.73298366 54.4159057 1.70827508 52.24609375 1.68359375 C50.74536048 1.66303113 49.2446331 1.64203485 47.74391174 1.62062073 C43.78688307 1.56532845 39.82980151 1.51595089 35.87268066 1.46777344 C31.8375984 1.4176105 27.80259328 1.36189732 23.76757812 1.30664062 C15.84511723 1.1989716 7.92259196 1.09754621 0 1 C0 0.67 0 0.34 0 0 Z " fill="#9ECCDC" transform="translate(1371,348)"/>
<path d="M0 0 C21.12 0 42.24 0 64 0 C64 0.33 64 0.66 64 1 C63.2786084 1.00808685 62.5572168 1.01617371 61.81396484 1.02450562 C54.98802422 1.10271392 48.1622544 1.19008208 41.33656311 1.28752708 C37.82809336 1.33729733 34.31965094 1.38362753 30.81103516 1.421875 C26.76967121 1.46608522 22.7286564 1.52565495 18.6875 1.5859375 C17.4382373 1.59748871 16.18897461 1.60903992 14.90185547 1.62094116 C8.6027553 1.72695424 3.02855968 2.13245705 -3 4 C-3 3.34 -3 2.68 -3 2 C-2.01 2 -1.02 2 0 2 C0 1.34 0 0.68 0 0 Z " fill="#8AC4D9" transform="translate(199,656)"/>
<path d="M0 0 C2 1.75 2 1.75 4 4 C4 5.32 4 6.64 4 8 C4.66 8 5.32 8 6 8 C6 9.32 6 10.64 6 12 C6.66 12 7.32 12 8 12 C9.65776005 17.06792735 10.23859717 21.29465204 10.1953125 26.68359375 C10.1924826 27.38396255 10.18965271 28.08433136 10.18673706 28.80592346 C10.17564885 31.0166317 10.15056703 33.22691671 10.125 35.4375 C10.11495546 36.94725972 10.1058322 38.45702588 10.09765625 39.96679688 C10.07574714 43.64466597 10.04129758 47.3222916 10 51 C9.01 51.495 9.01 51.495 8 52 C8.33 41.44 8.66 30.88 9 20 C8.34 20 7.68 20 7 20 C5.57741188 16.17679443 4.75957724 13.08718695 5 9 C4.34 9 3.68 9 3 9 C3 8.01 3 7.02 3 6 C2.34 6 1.68 6 1 6 C0.67 4.02 0.34 2.04 0 0 Z " fill="#C2D7DE" transform="translate(1511,352)"/>
<path d="M0 0 C3.3 0.33 6.6 0.66 10 1 C10 1.66 10 2.32 10 3 C11.27875 2.938125 12.5575 2.87625 13.875 2.8125 C21.11987541 2.8125 28.03696077 4.82587254 34 9 C31.3333581 10.33332095 29.83319697 9.67102033 27 9 C27 8.34 27 7.68 27 7 C25.93458984 6.90912109 25.93458984 6.90912109 24.84765625 6.81640625 C23.92855469 6.73261719 23.00945312 6.64882813 22.0625 6.5625 C20.68771484 6.44068359 20.68771484 6.44068359 19.28515625 6.31640625 C17 6 17 6 16 5 C15.01 4.87625 14.02 4.7525 13 4.625 C8.45979411 4.04921505 4.28926602 2.54647006 0 1 C0 0.67 0 0.34 0 0 Z " fill="#A4CCDA" transform="translate(1178,319)"/>
<path d="M0 0 C0.33 0 0.66 0 1 0 C2.97509766 8.61850675 3.2438341 16.8709239 3.125 25.6875 C3.11597656 26.97333984 3.10695313 28.25917969 3.09765625 29.58398438 C3.0743189 32.72285732 3.04158033 35.86132476 3 39 C2.67 39 2.34 39 2 39 C1.97494385 38.31373535 1.9498877 37.6274707 1.92407227 36.92041016 C1.80828573 33.82174183 1.68548115 30.72339077 1.5625 27.625 C1.52318359 26.54476563 1.48386719 25.46453125 1.44335938 24.3515625 C1.40146484 23.3203125 1.35957031 22.2890625 1.31640625 21.2265625 C1.27974854 20.27346191 1.24309082 19.32036133 1.20532227 18.33837891 C1.14236535 15.97867651 1.14236535 15.97867651 0 14 C-0.07116382 11.62597499 -0.08409085 9.24999323 -0.0625 6.875 C-0.05347656 5.59367187 -0.04445313 4.31234375 -0.03515625 2.9921875 C-0.02355469 2.00476563 -0.01195312 1.01734375 0 0 Z " fill="#ACCFDB" transform="translate(968,421)"/>
<path d="M0 0 C0 2.97 0 5.94 0 9 C-0.33 9 -0.66 9 -1 9 C-1 6.69 -1 4.38 -1 2 C-1.54914063 2.31582031 -2.09828125 2.63164062 -2.6640625 2.95703125 C-8.48495118 5.55598991 -15.88893851 5.48647442 -22 4 C-22.33 3.01 -22.66 2.02 -23 1 C-22.45085937 1.16113281 -21.90171875 1.32226562 -21.3359375 1.48828125 C-13.50925114 3.20282291 -7.35682496 0 0 0 Z " fill="#A4CBD9" transform="translate(136,324)"/>
<path d="M0 0 C0.66 0 1.32 0 2 0 C4.5012521 5.0025042 4.89309435 9.96967408 3.32421875 15.29296875 C2.60560593 17.21721634 1.80913106 19.11202752 1 21 C0.01 21 -0.98 21 -2 21 C-2 21.66 -2 22.32 -2 23 C-3.32 22.67 -4.64 22.34 -6 22 C-4.35 21.34 -2.7 20.68 -1 20 C-1 19.34 -1 18.68 -1 18 C-0.34 18 0.32 18 1 18 C1.02707139 15.75006641 1.04642829 13.50003905 1.0625 11.25 C1.07410156 9.99703125 1.08570313 8.7440625 1.09765625 7.453125 C1.02021027 4.71463499 0.82780815 2.58119707 0 0 Z " fill="#ACCFDC" transform="translate(269,661)"/>
<path d="M0 0 C-0.639375 0.309375 -1.27875 0.61875 -1.9375 0.9375 C-3.93610821 1.8345163 -3.93610821 1.8345163 -5 3 C-12.94005411 4.22737478 -20.98959729 4.11461625 -29 4 C-29 3.67 -29 3.34 -29 3 C-28.44014404 2.94465088 -27.88028809 2.88930176 -27.3034668 2.83227539 C-24.76444195 2.5792418 -22.225981 2.3209302 -19.6875 2.0625 C-18.80642578 1.97548828 -17.92535156 1.88847656 -17.01757812 1.79882812 C-15.74624023 1.66831055 -15.74624023 1.66831055 -14.44921875 1.53515625 C-13.27879028 1.41732788 -13.27879028 1.41732788 -12.0847168 1.29711914 C-2.63476177 -0.04971249 -2.63476177 -0.04971249 0 0 Z " fill="#B2D0DC" transform="translate(1187,588)"/>
<path d="M0 0 C0 0.66 0 1.32 0 2 C-1.04220703 1.52433594 -1.04220703 1.52433594 -2.10546875 1.0390625 C-5.26188644 -0.09401052 -7.97280167 -0.40480011 -11.3125 -0.625 C-12.91544922 -0.73714844 -12.91544922 -0.73714844 -14.55078125 -0.8515625 C-15.35902344 -0.90054688 -16.16726562 -0.94953125 -17 -1 C-17 -0.34 -17 0.32 -17 1 C-19.31 1.33 -21.62 1.66 -24 2 C-23.67 1.34 -23.34 0.68 -23 0 C-22.01 0 -21.02 0 -20 0 C-20 -0.66 -20 -1.32 -20 -2 C-12.84052872 -4.29103081 -6.75304565 -2.57258882 0 0 Z " fill="#A0CADB" transform="translate(244,194)"/>
<path d="M0 0 C2.64 0.33 5.28 0.66 8 1 C8 1.66 8 2.32 8 3 C8.56847656 3.10957031 9.13695312 3.21914063 9.72265625 3.33203125 C14.82316758 4.37938166 19.284442 5.79271753 24 8 C24 8.66 24 9.32 24 10 C17.62267685 8.12275039 11.29304541 6.14328358 5 4 C5 3.34 5 2.68 5 2 C3.35 2 1.7 2 0 2 C0 1.34 0 0.68 0 0 Z " fill="#A2CDDB" transform="translate(1181,354)"/>
<path d="M0 0 C2.97 0 5.94 0 9 0 C8.2575 0.721875 7.515 1.44375 6.75 2.1875 C4.30709485 4.68592573 2.1318953 7.23643202 0 10 C0 6.7 0 3.4 0 0 Z " fill="#C7D8E1" transform="translate(0,0)"/>
<path d="M0 0 C0.66 0 1.32 0 2 0 C1.67 5.94 1.34 11.88 1 18 C0.34 18 -0.32 18 -1 18 C-1 19.98 -1 21.96 -1 24 C-1.66 24.33 -2.32 24.66 -3 25 C-2.85892253 23.54119891 -2.71197585 22.08296449 -2.5625 20.625 C-2.48128906 19.81289063 -2.40007813 19.00078125 -2.31640625 18.1640625 C-2 16 -2 16 -1 14 C-0.76970044 11.62876754 -0.58880058 9.25258057 -0.4375 6.875 C-0.35371094 5.59367187 -0.26992188 4.31234375 -0.18359375 2.9921875 C-0.09271484 1.51105469 -0.09271484 1.51105469 0 0 Z " fill="#B5D1DE" transform="translate(968,473)"/>
<path d="M0 0 C1.32 0.33 2.64 0.66 4 1 C3.01 1 2.02 1 1 1 C1 1.66 1 2.32 1 3 C-2 5 -2 5 -5 5 C-5.33 5.99 -5.66 6.98 -6 8 C-8.50390625 8.94921875 -8.50390625 8.94921875 -11.5625 9.6875 C-13.08037109 10.06455078 -13.08037109 10.06455078 -14.62890625 10.44921875 C-15.41136719 10.63097656 -16.19382813 10.81273437 -17 11 C-17 10.34 -17 9.68 -17 9 C-16.01 9 -15.02 9 -14 9 C-14 8.34 -14 7.68 -14 7 C-6.57142857 4.85714286 -6.57142857 4.85714286 -3 4 C-3 3.34 -3 2.68 -3 2 C-2.01 2 -1.02 2 0 2 C0 1.34 0 0.68 0 0 Z " fill="#8FC7D3" transform="translate(154,227)"/>
<path d="M0 0 C4.73038036 3.78430429 4.73038036 3.78430429 5.4375 6.97265625 C5.56985112 11.39814676 4.7753295 13.68584323 2 17 C1.93941406 16.02417969 1.87882813 15.04835938 1.81640625 14.04296875 C1.73261719 12.77066406 1.64882812 11.49835938 1.5625 10.1875 C1.48128906 8.92292969 1.40007812 7.65835937 1.31640625 6.35546875 C1.12815453 3.00818107 1.12815453 3.00818107 0 0 Z " fill="#7FC1D7" transform="translate(241,305)"/>
<path d="M0 0 C0.66 1.32 1.32 2.64 2 4 C1.09515208 5.15518918 0.1755794 6.29885406 -0.75 7.4375 C-1.51570312 8.39462891 -1.51570312 8.39462891 -2.296875 9.37109375 C-4.19667629 11.18810554 -5.43586908 11.60423197 -8 12 C-8 11.34 -8 10.68 -8 10 C-7.34 10 -6.68 10 -6 10 C-5.7525 9.46375 -5.505 8.9275 -5.25 8.375 C-3.70303025 5.43575748 -1.86985631 2.74245592 0 0 Z " fill="#7CBEDE" transform="translate(954,522)"/>
<path d="M0 0 C1.32 0.33 2.64 0.66 4 1 C4 1.66 4 2.32 4 3 C4.66 3.103125 5.32 3.20625 6 3.3125 C9.78428422 4.1797318 13.50292411 5.29231574 17 7 C17.33 7.66 17.66 8.32 18 9 C16.68 9 15.36 9 14 9 C14 8.34 14 7.68 14 7 C11.69 6.67 9.38 6.34 7 6 C7 5.34 7 4.68 7 4 C5.824375 3.7834375 5.824375 3.7834375 4.625 3.5625 C2 3 2 3 0 2 C0 1.34 0 0.68 0 0 Z " fill="#8FC5D6" transform="translate(322,235)"/>
<path d="M0 0 C1.65 0 3.3 0 5 0 C5 0.66 5 1.32 5 2 C4.34 2 3.68 2 3 2 C3 2.66 3 3.32 3 4 C1.38542921 5.43581474 -0.29219075 6.80144783 -2 8.125 C-2.928125 8.84945313 -3.85625 9.57390625 -4.8125 10.3203125 C-5.534375 10.87460937 -6.25625 11.42890625 -7 12 C-7.33 11.34 -7.66 10.68 -8 10 C-6.625 8.5 -6.625 8.5 -5 7 C-4.34 7 -3.68 7 -3 7 C-3 6.34 -3 5.68 -3 5 C-2.34 5 -1.68 5 -1 5 C-1 4.34 -1 3.68 -1 3 C-0.34 3 0.32 3 1 3 C0.67 2.01 0.34 1.02 0 0 Z " fill="#77BED6" transform="translate(1503,427)"/>
<path d="M0 0 C4.75 0.875 4.75 0.875 7 2 C7 2.66 7 3.32 7 4 C8.175625 4.4640625 8.175625 4.4640625 9.375 4.9375 C12 6 12 6 14 7 C14 7.66 14 8.32 14 9 C14.66 9 15.32 9 16 9 C15.67 9.66 15.34 10.32 15 11 C11.63061102 9.87687034 10.46825907 8.46825907 8 6 C7.01 5.67 6.02 5.34 5 5 C5 4.34 5 3.68 5 3 C2.525 2.01 2.525 2.01 0 1 C0 0.67 0 0.34 0 0 Z " fill="#ADD1DD" transform="translate(1228,337)"/>
<path d="M0 0 C0 0.66 0 1.32 0 2 C-0.99 2 -1.98 2 -3 2 C-3 2.66 -3 3.32 -3 4 C-5.97 4 -8.94 4 -12 4 C-12 3.01 -12 2.02 -12 1 C-10.37512529 0.83211627 -8.75009558 0.66573213 -7.125 0.5 C-6.22007812 0.4071875 -5.31515625 0.314375 -4.3828125 0.21875 C-2 0 -2 0 0 0 Z " fill="#ADCEDD" transform="translate(349,326)"/>
<path d="M0 0 C0.66 0.33 1.32 0.66 2 1 C-2.6194654 6.58185402 -9.02747061 8.12843383 -16 9 C-13.369307 6.369307 -10.2885168 4.96006012 -7 3.3125 C-6.03707031 2.81266602 -6.03707031 2.81266602 -5.0546875 2.30273438 C-3.40073736 1.47056908 -1.70233557 0.72808225 0 0 Z " fill="#6CBBCE" transform="translate(131,240)"/>
<path d="M0 0 C3 3.75 3 3.75 3 6 C4.98 6.66 6.96 7.32 9 8 C9 8.33 9 8.66 9 9 C6.03 9 3.06 9 0 9 C0 6.03 0 3.06 0 0 Z " fill="#C3D8DE" transform="translate(0,729)"/>
<path d="M0 0 C0.33 0 0.66 0 1 0 C1 3.3 1 6.6 1 10 C0.01 10.33 -0.98 10.66 -2 11 C-2 11.99 -2 12.98 -2 14 C-2.66 14 -3.32 14 -4 14 C-3.52525225 11.85318469 -3.04508251 9.70756772 -2.5625 7.5625 C-2.29566406 6.36753906 -2.02882813 5.17257812 -1.75390625 3.94140625 C-1 1 -1 1 0 0 Z " fill="#B7D3DD" transform="translate(1524,534)"/>
<path d="M0 0 C0.33 0.66 0.66 1.32 1 2 C-0.25 4.5625 -0.25 4.5625 -2 7 C-2.99 7.33 -3.98 7.66 -5 8 C-5 8.66 -5 9.32 -5 10 C-6.96147874 11.38938077 -8.96166576 12.7260411 -11 14 C-11.66 13.67 -12.32 13.34 -13 13 C-8.25 9 -8.25 9 -6 9 C-6 8.34 -6 7.68 -6 7 C-5.34 7 -4.68 7 -4 7 C-3.71125 6.401875 -3.4225 5.80375 -3.125 5.1875 C-2 3 -2 3 0 0 Z " fill="#AFD0DD" transform="translate(1512,560)"/>
<path d="M0 0 C1.57043101 0.01330874 3.14079971 0.03717648 4.7109375 0.0703125 C5.51273438 0.07933594 6.31453125 0.08835937 7.140625 0.09765625 C9.12252273 0.12125027 11.10426731 0.15712185 13.0859375 0.1953125 C13.0859375 0.5253125 13.0859375 0.8553125 13.0859375 1.1953125 C12.15652344 1.22109375 11.22710937 1.246875 10.26953125 1.2734375 C3.11296014 1.60178904 -2.08299237 1.89142741 -7.9140625 6.1953125 C-5.14267285 0.2566204 -5.14267285 0.2566204 0 0 Z " fill="#7BBED7" transform="translate(186.9140625,342.8046875)"/>
<path d="M0 0 C4.17546267 4.17546267 4.125 11.98419752 4.125 17.6875 C4.08375 18.780625 4.0425 19.87375 4 21 C3.67 21 3.34 21 3 21 C0.5579208 14.16217825 0.37977242 7.20568193 0 0 Z " fill="#90C5DA" transform="translate(1280,413)"/>
<path d="M0 0 C0.99 0.495 0.99 0.495 2 1 C2 1.99 2 2.98 2 4 C2.66 4 3.32 4 4 4 C4.99 7.96 5.98 11.92 7 16 C2.03290651 11.03290651 1.22176492 6.71970708 0 0 Z " fill="#8BC4D8" transform="translate(1518,483)"/>
<path d="M0 0 C2 1 2 1 3.125 4.0625 C3.41375 5.031875 3.7025 6.00125 4 7 C4.66 7 5.32 7 6 7 C6 8.32 6 9.64 6 11 C6.66 11 7.32 11 8 11 C8 12.65 8 14.3 8 16 C7.67 15.01 7.34 14.02 7 13 C6.34 13 5.68 13 5 13 C4.16209211 11.21046815 3.32980604 9.41830305 2.5 7.625 C1.80390625 6.12839844 1.80390625 6.12839844 1.09375 4.6015625 C0 2 0 2 0 0 Z " fill="#92C7D5" transform="translate(993,376)"/>
<path d="M0 0 C0.33 1.32 0.66 2.64 1 4 C0.34 4 -0.32 4 -1 4 C-1.226875 4.639375 -1.45375 5.27875 -1.6875 5.9375 C-3 8 -3 8 -5.625 8.75 C-6.40875 8.8325 -7.1925 8.915 -8 9 C-7.67 8.34 -7.34 7.68 -7 7 C-6.34 7 -5.68 7 -5 7 C-5 6.34 -5 5.68 -5 5 C-4.34 5 -3.68 5 -3 5 C-2.690625 4.360625 -2.38125 3.72125 -2.0625 3.0625 C-1 1 -1 1 0 0 Z " fill="#82C2D2" transform="translate(1222,529)"/>
<path d="M0 0 C1.71214668 6.84858671 0.46519816 11.97356842 -3 18 C-4.53445094 14.93109813 -3.54984289 12.29905734 -3 9 C-2.34 9 -1.68 9 -1 9 C-0.67 6.03 -0.34 3.06 0 0 Z " fill="#A1CBD9" transform="translate(1008,490)"/>
<path d="M0 0 C1.65 0 3.3 0 5 0 C5 2.31 5 4.62 5 7 C2.5 5.75 2.5 5.75 0 4 C0 2.68 0 1.36 0 0 Z " fill="#67BAC9" transform="translate(941,368)"/>
<path d="M0 0 C2.06428157 0.25690181 4.12641094 0.53113046 6.1875 0.8125 C7.91033203 1.03873047 7.91033203 1.03873047 9.66796875 1.26953125 C13.01836027 2.00402505 15.1929729 3.07049926 18 5 C15.3333581 6.33332095 13.83319697 5.67102033 11 5 C11 4.34 11 3.68 11 3 C10.28972656 2.95101563 9.57945313 2.90203125 8.84765625 2.8515625 C7.92855469 2.77679688 7.00945312 2.70203125 6.0625 2.625 C5.14597656 2.55539062 4.22945312 2.48578125 3.28515625 2.4140625 C2.15400391 2.20910156 2.15400391 2.20910156 1 2 C0.67 1.34 0.34 0.68 0 0 Z " fill="#91C6DB" transform="translate(1194,323)"/>
<path d="M0 0 C0.66 0.33 1.32 0.66 2 1 C1.01 1.33 0.02 1.66 -1 2 C-1 2.66 -1 3.32 -1 4 C-1.66 4 -2.32 4 -3 4 C-3 4.66 -3 5.32 -3 6 C-7.95 7.485 -7.95 7.485 -13 9 C-11.40311734 5.80623468 -8.16616965 4.42408504 -5 3 C-4.01 3 -3.02 3 -2 3 C-2 2.34 -2 1.68 -2 1 C-1.34 0.67 -0.68 0.34 0 0 Z " fill="#8AC4D9" transform="translate(1469,548)"/>
<path d="M0 0 C-0.33 1.32 -0.66 2.64 -1 4 C0.32 4.33 1.64 4.66 3 5 C1 6 1 6 -0.9453125 5.44140625 C-1.66460938 5.15136719 -2.38390625 4.86132812 -3.125 4.5625 C-3.84945313 4.27503906 -4.57390625 3.98757813 -5.3203125 3.69140625 C-6.15175781 3.34916016 -6.15175781 3.34916016 -7 3 C-5.40442685 -0.19114631 -3.35905282 0 0 0 Z " fill="#B9D4DF" transform="translate(1482,447)"/>
<path d="M0 0 C3.96 0 7.92 0 12 0 C12.33 0.99 12.66 1.98 13 3 C11.68 3 10.36 3 9 3 C9 2.34 9 1.68 9 1 C7.02 1 5.04 1 3 1 C3 1.66 3 2.32 3 3 C1.68 2.67 0.36 2.34 -1 2 C-0.67 1.34 -0.34 0.68 0 0 Z " fill="#99C9DA" transform="translate(226,276)"/>
<path d="M0 0 C0.66 0.33 1.32 0.66 2 1 C-1.23507998 5.4114727 -4.84557192 5.84694558 -9.953125 6.703125 C-10.62859375 6.80109375 -11.3040625 6.8990625 -12 7 C-10.58982699 4.17965397 -8.91174979 4.02527016 -6 2.9375 C-2.74402427 1.88571928 -2.74402427 1.88571928 0 0 Z " fill="#6EBCD0" transform="translate(187,212)"/>
<path d="M0 0 C1.25127906 3.54667178 0.72285053 5.72253438 -0.4375 9.25 C-0.72496094 10.14203125 -1.01242187 11.0340625 -1.30859375 11.953125 C-1.53675781 12.62859375 -1.76492188 13.3040625 -2 14 C-3.05128687 10.76470168 -2.91901775 8.60277903 -2.125 5.3125 C-1.94195313 4.52488281 -1.75890625 3.73726563 -1.5703125 2.92578125 C-1 1 -1 1 0 0 Z " fill="#87C1D4" transform="translate(1281,490)"/>
<path d="M0 0 C2 1.75 2 1.75 4 4 C4 5.32 4 6.64 4 8 C4.66 8 5.32 8 6 8 C5.67 9.32 5.34 10.64 5 12 C4.54625 11.236875 4.0925 10.47375 3.625 9.6875 C2.46175508 7.76367186 1.2470585 5.87058776 0 4 C0 2.68 0 1.36 0 0 Z " fill="#93C7D9" transform="translate(1266,375)"/>
<path d="M0 0 C1.55955444 3.11910889 0.62673502 5.63842127 0 9 C-1.0625 11.9375 -1.0625 11.9375 -2 14 C-2.66 14 -3.32 14 -4 14 C-3.67 11.36 -3.34 8.72 -3 6 C-2.34 6 -1.68 6 -1 6 C-1.020625 5.195625 -1.04125 4.39125 -1.0625 3.5625 C-1 1 -1 1 0 0 Z " fill="#90C6D7" transform="translate(1239,495)"/>
<path d="M0 0 C2.29903669 4.10542266 4.35523153 8.69099505 3.625 13.4375 C3.41875 13.953125 3.2125 14.46875 3 15 C2.67 12.69 2.34 10.38 2 8 C1.34 8 0.68 8 0 8 C0 5.36 0 2.72 0 0 Z " fill="#8BC4D7" transform="translate(1003,397)"/>
<path d="M0 0 C2 1.75 2 1.75 4 4 C4 5.32 4 6.64 4 8 C4.66 8 5.32 8 6 8 C6.33 10.31 6.66 12.62 7 15 C6.34 14.67 5.68 14.34 5 14 C5 12.35 5 10.7 5 9 C4.34 9 3.68 9 3 9 C3 8.01 3 7.02 3 6 C2.34 6 1.68 6 1 6 C0.67 4.02 0.34 2.04 0 0 Z " fill="#92C7D8" transform="translate(1511,352)"/>
<path d="M0 0 C0 0.66 0 1.32 0 2 C-5.24385089 3.7479503 -9.47322267 4.19392201 -15 4 C-15 3.67 -15 3.34 -15 3 C-10.0942399 1.20520972 -5.25513819 0 0 0 Z " fill="#B0D1DB" transform="translate(1473,587)"/>
<path d="M0 0 C-0.33 0.33 -0.66 0.66 -1 1 C0.32 1.33 1.64 1.66 3 2 C2.67 2.66 2.34 3.32 2 4 C-1.63 3.01 -5.26 2.02 -9 1 C-9 0.67 -9 0.34 -9 0 C-5.62182575 -0.84454356 -3.32534757 -1.10844919 0 0 Z " fill="#64BBDA" transform="translate(908,351)"/>
<path d="M0 0 C2.64 0.33 5.28 0.66 8 1 C8 1.66 8 2.32 8 3 C9.32 3.33 10.64 3.66 12 4 C9.13822943 5.43088528 7.06624227 4.59991697 4 4 C4 3.34 4 2.68 4 2 C2.68 2 1.36 2 0 2 C0 1.34 0 0.68 0 0 Z " fill="#93C7D9" transform="translate(1465,319)"/>
<path d="M0 0 C0.66 0.33 1.32 0.66 2 1 C1.01 2.485 1.01 2.485 0 4 C-3.625 4.1875 -3.625 4.1875 -7 4 C-7 4.66 -7 5.32 -7 6 C-8.32 6.33 -9.64 6.66 -11 7 C-11 6.34 -11 5.68 -11 5 C-10.01 5 -9.02 5 -8 5 C-8 4.34 -8 3.68 -8 3 C-6.865625 2.690625 -5.73125 2.38125 -4.5625 2.0625 C-1.21224901 1.37075469 -1.21224901 1.37075469 0 0 Z " fill="#8AC4D1" transform="translate(204,203)"/>
<path d="M0 0 C0.66 0.33 1.32 0.66 2 1 C-0.33343353 4.50015029 -2.16917814 5.40382422 -6 7 C-6.66 6.67 -7.32 6.34 -8 6 C-5.66656647 2.49984971 -3.83082186 1.59617578 0 0 Z " fill="#A2CCDC" transform="translate(961,567)"/>
<path d="M0 0 C1.21236328 0.02707031 1.21236328 0.02707031 2.44921875 0.0546875 C3.37154297 0.08949219 3.37154297 0.08949219 4.3125 0.125 C3.9825 1.115 3.6525 2.105 3.3125 3.125 C1.9925 3.125 0.6725 3.125 -0.6875 3.125 C-0.6875 2.465 -0.6875 1.805 -0.6875 1.125 C-2.9975 1.455 -5.3075 1.785 -7.6875 2.125 C-4.48369983 -0.01086678 -3.66810033 -0.10632175 0 0 Z " fill="#60B8C9" transform="translate(1454.6875,556.875)"/>
<path d="M0 0 C6.20970773 -0.33266291 10.28264895 0.54970669 16 3 C12.83454798 4.58272601 10.25581122 3.33086619 6.875 2.5625 C4.95300781 2.13130859 4.95300781 2.13130859 2.9921875 1.69140625 C1.51105469 1.34916016 1.51105469 1.34916016 0 1 C0 0.67 0 0.34 0 0 Z " fill="#70BBD3" transform="translate(1169,351)"/>
<path d="M0 0 C0.66 0 1.32 0 2 0 C1.50769231 6.4 1.50769231 6.4 -1.0625 9.4375 C-1.701875 9.953125 -2.34125 10.46875 -3 11 C-2.67 9.02 -2.34 7.04 -2 5 C-1.34 5 -0.68 5 0 5 C0 3.35 0 1.7 0 0 Z " fill="#7DC0D9" transform="translate(1514,411)"/>
<path d="M0 0 C0.66 0.33 1.32 0.66 2 1 C0.50902342 4.7952131 -1.75700849 6.61042731 -5 9 C-4.67 7.35 -4.34 5.7 -4 4 C-3.01 3.67 -2.02 3.34 -1 3 C-0.67 2.01 -0.34 1.02 0 0 Z " fill="#70B8DD" transform="translate(987,540)"/>
<path d="M0 0 C0.99 0 1.98 0 3 0 C2.67 1.32 2.34 2.64 2 4 C1.01 4 0.02 4 -1 4 C-1 1 -1 1 0 0 Z " fill="#55B4C8" transform="translate(182,346)"/>
<path d="M0 0 C0.33 0.99 0.66 1.98 1 3 C-0.32 3.33 -1.64 3.66 -3 4 C-3 4.66 -3 5.32 -3 6 C-4.32 5.67 -5.64 5.34 -7 5 C-5.35 4.34 -3.7 3.68 -2 3 C-2 2.34 -2 1.68 -2 1 C-1.34 0.67 -0.68 0.34 0 0 Z " fill="#7EC0DA" transform="translate(270,678)"/>
<path d="M0 0 C-5.41538462 3.07692308 -5.41538462 3.07692308 -8.375 2.6875 C-9.179375 2.3471875 -9.179375 2.3471875 -10 2 C-7.20652751 -0.79347249 -3.65536205 -1.82768103 0 0 Z " fill="#81C1D8" transform="translate(1483,584)"/>
</svg>
